<?xml version="1.0" standalone="no"?>
<!DOCTYPE svg PUBLIC "-//W3C//DTD SVG 20010904//EN"
 "http://www.w3.org/TR/2001/REC-SVG-20010904/DTD/svg10.dtd">
<svg version="1.0" xmlns="http://www.w3.org/2000/svg"
 width="417.000000pt" height="417.000000pt" viewBox="0 0 417.000000 417.000000"
 preserveAspectRatio="xMidYMid meet">
<metadata>
Created by potrace 1.14, written by Peter Selinger 2001-2017
</metadata>
<g transform="translate(0.000000,417.000000) scale(0.100000,-0.100000)"
fill="#000000" stroke="none">
<path d="M314 2991 c-2 -2 -4 -388 -4 -858 l0 -853 160 0 c159 0 160 0 160 23
1 12 1 304 1 650 0 345 3 627 7 627 4 0 42 -138 84 -307 42 -170 102 -407 133
-528 31 -121 58 -229 60 -240 3 -11 16 -64 30 -119 14 -54 25 -100 25 -102 0
-2 76 -4 168 -4 l168 0 36 143 c166 662 292 1153 298 1160 4 4 7 -286 7 -645
l0 -653 161 -3 162 -2 0 854 c0 674 -3 855 -12 858 -17 6 -506 3 -510 -2 -2
-3 -20 -70 -41 -150 -20 -80 -73 -282 -118 -450 -44 -168 -95 -363 -114 -434
l-33 -129 -15 54 c-16 54 -33 119 -82 304 -15 55 -46 172 -69 260 -61 223
-118 438 -121 450 -1 6 -7 30 -14 55 l-12 45 -255 0 c-141 0 -257 -2 -260 -4z"/>
<path d="M2695 2534 c-225 -44 -402 -231 -443 -469 -11 -66 -7 -306 6 -360 77
-307 302 -470 627 -452 230 13 388 110 475 292 29 61 55 144 47 151 -5 6 -33
11 -117 24 -36 6 -81 13 -100 17 -19 3 -50 7 -69 7 -32 1 -34 -1 -46 -47 -14
-53 -59 -124 -90 -141 -11 -6 -23 -15 -27 -21 -13 -18 -189 -12 -223 7 -59 33
-103 87 -127 156 -20 58 -23 86 -23 212 0 183 16 242 86 311 110 109 309 86
373 -43 14 -28 26 -60 26 -70 0 -10 6 -15 13 -13 6 2 26 7 42 10 17 3 85 15
152 26 l121 22 -13 37 c-64 181 -186 297 -360 340 -72 18 -248 20 -330 4z"/>
<path d="M3643 1444 l0 -164 164 0 163 0 0 164 0 165 -164 0 -163 -1 0 -164z"/>
</g>
</svg>
