<svg width="1000" height="1000" xmlns="http://www.w3.org/2000/svg" xml:space="preserve">
 <defs>
  <clipPath clipPathUnits="userSpaceOnUse" id="a">
   <path id="svg_1" d="m0,500l500,0l0,-500l-500,0l0,500z"/>
  </clipPath>
  <clipPath clipPathUnits="userSpaceOnUse" id="b">
   <path id="svg_2" d="m173.74715,240.65347l46.517,0l0,-51.418l-46.517,0l0,51.418z"/>
  </clipPath>
  <clipPath clipPathUnits="userSpaceOnUse" id="c">
   <path id="svg_3" d="m254.18015,341.28847l13.964,0l0,-10.022l-13.964,0l0,10.022z"/>
  </clipPath>
  <clipPath clipPathUnits="userSpaceOnUse" id="d">
   <path id="svg_4" d="m241.11215,272.59847l5.027,0l0,-10.737l-5.027,0l0,10.737z"/>
  </clipPath>
  <clipPath clipPathUnits="userSpaceOnUse" id="e">
   <path id="svg_5" d="m200.47715,266.61847l38.757,0l0,-77.383l-38.757,0l0,77.383z"/>
  </clipPath>
  <clipPath clipPathUnits="userSpaceOnUse" id="f">
   <path id="svg_6" d="m207.12615,270.42047l62.818,0l0,-60.756l-62.818,0l0,60.756z"/>
  </clipPath>
  <clipPath clipPathUnits="userSpaceOnUse" id="g">
   <path id="svg_7" d="m241.26515,316.96747l12.1,0l0,-30.538l-12.1,0l0,30.538z"/>
  </clipPath>
  <clipPath clipPathUnits="userSpaceOnUse" id="h">
   <path id="svg_8" d="m242.44315,299.12447l20.896,0l0,-29.351l-20.896,0l0,29.351z"/>
  </clipPath>
  <clipPath clipPathUnits="userSpaceOnUse" id="i">
   <path id="svg_9" d="m253.37015,342.70847l7.645,0l0,-6.09l-7.645,0l0,6.09z"/>
  </clipPath>
  <clipPath clipPathUnits="userSpaceOnUse" id="j">
   <path id="svg_10" d="m230.20615,304.64147l11.476,0l0,-16.389l-11.476,0l0,16.389z"/>
  </clipPath>
  <clipPath clipPathUnits="userSpaceOnUse" id="k">
   <path id="svg_11" d="m238.05615,357.82047l32.191,0l0,-16.913l-32.191,0l0,16.913z"/>
  </clipPath>
  <clipPath clipPathUnits="userSpaceOnUse" id="l">
   <path id="svg_12" d="m279.53215,348.87747l25.887,0l0,-109.651l-25.887,0l0,109.651z"/>
  </clipPath>
  <clipPath clipPathUnits="userSpaceOnUse" id="m">
   <path id="svg_13" d="m251.46315,238.39347l6.613,0l0,-15.551l-6.613,0l0,15.551z"/>
  </clipPath>
  <clipPath clipPathUnits="userSpaceOnUse" id="n">
   <path id="svg_14" d="m210.23615,312.60447l57.094,0l0,-74.211l-57.094,0l0,74.211z"/>
  </clipPath>
  <clipPath clipPathUnits="userSpaceOnUse" id="o">
   <path id="svg_15" d="m258.07615,349.19047l27.248,0l0,-110.797l-27.248,0l0,110.797z"/>
  </clipPath>
  <clipPath clipPathUnits="userSpaceOnUse" id="p">
   <path id="svg_16" d="m94.61815,324.04747l19.66,0l0,-10.902l-19.66,0l0,10.902z"/>
  </clipPath>
  <clipPath clipPathUnits="userSpaceOnUse" id="q">
   <path id="svg_17" d="m111.54115,377.94347l16.537,0l0,-58.771l-16.537,0l0,58.771z"/>
  </clipPath>
  <clipPath clipPathUnits="userSpaceOnUse" id="r">
   <path id="svg_18" d="m97.29715,350.55647l14.285,0l0,-38.959l-14.285,0l0,38.959z"/>
  </clipPath>
  <clipPath clipPathUnits="userSpaceOnUse" id="s">
   <path id="svg_19" d="m118.02315,330.39047l11.498,0l0,-20.262l-11.498,0l0,20.262z"/>
  </clipPath>
  <clipPath clipPathUnits="userSpaceOnUse" id="t">
   <path id="svg_20" d="m108.05815,340.81747l17.785,0l0,-27.672l-17.785,0l0,27.672z"/>
  </clipPath>
  <clipPath clipPathUnits="userSpaceOnUse" id="u">
   <path id="svg_21" d="m101.37915,306.76047l14.151,0l0,-14.929l-14.151,0l0,14.929z"/>
  </clipPath>
  <clipPath clipPathUnits="userSpaceOnUse" id="v">
   <path id="svg_22" d="m313.08415,306.76047l26.867,0l0,-97.522l-26.867,0l0,97.522z"/>
  </clipPath>
  <clipPath clipPathUnits="userSpaceOnUse" id="w">
   <path id="svg_23" d="m305.77615,237.48447l24.728,0l0,-48.584l-24.728,0l0,48.584z"/>
  </clipPath>
  <clipPath clipPathUnits="userSpaceOnUse" id="x">
   <path id="svg_24" d="m306.53515,253.22447l46.649,0l0,-83.444l-46.649,0l0,83.444z"/>
  </clipPath>
  <clipPath clipPathUnits="userSpaceOnUse" id="y">
   <path id="svg_25" d="m42.58415,293.65547l22.224,0l0,-35.862l-22.224,0l0,35.862z"/>
  </clipPath>
  <clipPath clipPathUnits="userSpaceOnUse" id="z">
   <path id="svg_26" d="m37.32515,288.68847l47.144,0l0,-66.258l-47.144,0l0,66.258z"/>
  </clipPath>
 </defs>
 <g>
  <title>Layer 1</title>
  <path id="svg_27" fill-rule="nonzero" fill="#fff0" d="m0,1000l666.66502,0l0,-666.66502l-666.66502,0l0,666.66502z"/>
  <g id="svg_28" transform="matrix(2.69499 0 0 -2.69499 -70.2101 1418.77)" clip-path="url(#a)">
   <path id="svg_29" fill-rule="nonzero" fill="#eaf9f800" d="m374.57914,353.38146c-23.343,-34.949 -73.155,-143.037 -60.902,-183.151l-178.707,-0.041s-25.823,19.226 -50.91,52.653a273.244,273.244 0 0 0 -13.439,19.602c-4.616,7.399 -9.02,15.29 -13.022,23.638c-11.631,24.21 -19.93,52.268 -20.266,83.28c-1.17,107.352 91.744,207.124 218.142,166.863c126.397,-40.261 142.439,-127.895 119.104,-162.844"/>
   <path id="svg_30" fill-rule="nonzero" fill="#e03c03" d="m262.76615,168.96446c-0.359,0 -0.715,0.157 -0.958,0.458l-95.302,118.494a1.228,1.228 0 1 0 1.913,1.539l95.303,-118.493a1.23,1.23 0 0 0 -0.956,-1.998"/>
   <path id="svg_31" fill-rule="nonzero" fill="#ff6224" d="m114.93415,168.96446a1.226,1.226 0 0 0 -0.956,1.998l95.302,118.493a1.228,1.228 0 1 0 1.913,-1.539l-95.301,-118.494a1.229,1.229 0 0 0 -0.958,-0.458"/>
   <path id="svg_32" fill-rule="nonzero" fill="#ff6224" d="m210.23715,168.96446c-0.358,0 -0.714,0.157 -0.957,0.458l-95.302,118.494a1.228,1.228 0 1 0 1.913,1.539l95.302,-118.493a1.228,1.228 0 0 0 -0.956,-1.998"/>
   <path id="svg_33" fill-rule="nonzero" fill="#e03c03" d="m131.82215,285.54046l-44.276,0a3.145,3.145 0 1 0 0,6.291l44.276,0a3.146,3.146 0 1 0 0,-6.291"/>
   <path id="svg_34" fill-rule="nonzero" fill="#ff6224" d="m259.21415,285.54046l-126.548,0a3.145,3.145 0 0 0 0,6.291l126.548,0l0,-6.291z"/>
   <path id="svg_35" fill-rule="nonzero" fill="#e03c03" d="m166.02215,229.43946a3.436,3.436 0 1 0 -6.872,0a3.436,3.436 0 0 0 6.872,0"/>
   <path id="svg_36" fill-rule="nonzero" fill="#ffc947" d="m218.55015,229.43946a3.437,3.437 0 1 0 -6.874,0.002a3.437,3.437 0 0 0 6.874,-0.002"/>
   <path id="svg_37" fill-rule="nonzero" fill="#20c3c5" d="m172.82916,385.74947l-44.606,0a3.988,3.988 0 0 0 -3.988,3.988l0,33.174a3.988,3.988 0 0 0 3.988,3.988l44.606,0a3.988,3.988 0 0 0 3.988,-3.988l0,-33.174a3.988,3.988 0 0 0 -3.988,-3.988"/>
   <path id="svg_38" fill-rule="nonzero" fill="#fff" d="m151.88215,399.71246a6.4,6.4 0 0 0 -7.521,7.52c0.476,2.516 2.505,4.544 5.021,5.02a6.398,6.398 0 0 0 7.52,-7.52c-0.476,-2.516 -2.505,-4.544 -5.02,-5.02m10.056,9.017l-1.651,0a9.91,9.91 0 0 1 -1.114,2.539l1.273,1.274a1.242,1.242 0 0 1 0,1.758l-1.792,1.793a1.243,1.243 0 0 1 -1.759,0l-1.354,-1.354a9.82,9.82 0 0 1 -2.397,0.966l0,2.03c0,0.687 -0.556,1.244 -1.243,1.244l-2.535,0a1.244,1.244 0 0 1 -1.244,-1.244l0,-2.053a9.94,9.94 0 0 1 -2.327,-0.925l-1.486,1.487a1.245,1.245 0 0 1 -1.759,0l-1.793,-1.793a1.245,1.245 0 0 1 0,-1.759l1.377,-1.376a9.982,9.982 0 0 1 -1.082,-2.375l-1.936,0a1.243,1.243 0 0 1 -1.244,-1.243l0,-2.535c0,-0.687 0.557,-1.243 1.244,-1.243l1.696,0a9.78,9.78 0 0 1 0.953,-2.656l-1.158,-1.158a1.242,1.242 0 0 1 0,-1.758l1.793,-1.793a1.242,1.242 0 0 1 1.758,0l1.007,1.007a9.857,9.857 0 0 1 2.744,-1.242l0,-1.407c0,-0.687 0.557,-1.243 1.244,-1.243l2.535,0c0.687,0 1.243,0.556 1.243,1.243l0,1.313c1.016,0.239 1.973,0.626 2.845,1.147l0.968,-0.969a1.245,1.245 0 0 1 1.759,0l1.793,1.793a1.245,1.245 0 0 1 0,1.759l-0.995,0.994a9.926,9.926 0 0 1 1.093,2.757l1.544,0c0.686,0 1.243,0.556 1.243,1.243l0,2.535c0,0.687 -0.557,1.244 -1.243,1.244"/>
   <path id="svg_39" fill-rule="nonzero" fill="#ff6224" d="m239.98515,408.48147l-44.606,0a3.988,3.988 0 0 0 -3.989,3.988l0,33.174a3.988,3.988 0 0 0 3.989,3.987l44.606,0a3.988,3.988 0 0 0 3.988,-3.987l0,-33.174a3.988,3.988 0 0 0 -3.988,-3.988"/>
   <path id="svg_40" fill-rule="nonzero" fill="#fff" d="m208.80316,422.13946c-0.314,0 -0.628,0.128 -0.868,0.385l-5.542,5.931a1.379,1.379 0 0 0 0,1.858l5.636,6.031a1.171,1.171 0 0 0 1.736,0a1.38,1.38 0 0 0 0,-1.858l-4.768,-5.102l4.674,-5.002c0.48,-0.514 0.48,-1.346 0,-1.858a1.183,1.183 0 0 0 -0.868,-0.385"/>
   <path id="svg_41" fill-rule="nonzero" fill="#fff" d="m226.55915,422.13946c-0.314,0 -0.628,0.128 -0.868,0.385a1.379,1.379 0 0 0 0,1.858l4.675,5.002l-4.769,5.102a1.38,1.38 0 0 0 0,1.858c0.48,0.513 1.257,0.513 1.736,0l5.637,-6.031c0.231,-0.246 0.36,-0.58 0.36,-0.929c0,-0.349 -0.129,-0.683 -0.36,-0.929l-5.543,-5.931a1.185,1.185 0 0 0 -0.868,-0.385"/>
   <path id="svg_42" fill-rule="nonzero" fill="#fff" d="m214.93016,420.51046a1.14,1.14 0 0 0 -0.462,0.098c-0.629,0.273 -0.93,1.04 -0.675,1.712l5.501,14.462c0.256,0.671 0.969,0.998 1.601,0.722c0.628,-0.274 0.93,-1.04 0.675,-1.712l-5.502,-14.463c-0.195,-0.51 -0.653,-0.819 -1.138,-0.819"/>
   <path id="svg_43" fill-rule="nonzero" fill="#fff" d="m280.25016,400.57348l-110.677,0l0,3.397c0,0.917 0.743,1.66 1.659,1.66l107.359,0c0.917,0 1.659,-0.743 1.659,-1.66l0,-3.397z"/>
   <path id="svg_44" fill-rule="nonzero" fill="#383873" d="m277.16114,341.56846l-104.497,0a3.09,3.09 0 0 0 -3.09,3.09l0,55.915l110.677,0l0,-55.915a3.09,3.09 0 0 0 -3.09,-3.09"/>
   <path id="svg_45" fill-rule="nonzero" fill="#ff6224" d="m274.93916,403.10247a0.778,0.778 0 1 0 -1.556,0a0.778,0.778 0 0 0 1.556,0"/>
   <path id="svg_46" fill-rule="nonzero" fill="#ff6224" d="m269.59016,403.10247a0.778,0.778 0 1 0 -1.556,0a0.778,0.778 0 0 0 1.556,0"/>
   <path id="svg_47" fill-rule="nonzero" fill="#ff6224" d="m264.24217,403.10247a0.778,0.778 0 1 0 -1.556,0a0.778,0.778 0 0 0 1.556,0"/>
   <path id="svg_48" fill-rule="nonzero" fill="#20c3c5" d="m236.77015,392.60046l-61.459,0a1.07,1.07 0 1 0 0,2.14l61.459,0a1.07,1.07 0 0 0 0,-2.14"/>
   <path id="svg_49" fill-rule="nonzero" fill="#20c3c5" d="m236.77015,385.79348l-61.459,0a1.07,1.07 0 1 0 0,2.14l61.459,0a1.07,1.07 0 0 0 0,-2.14"/>
   <path id="svg_50" fill-rule="nonzero" fill="#20c3c5" d="m207.45115,378.98547l-32.14,0a1.07,1.07 0 0 0 0,2.14l32.14,0a1.07,1.07 0 0 0 0,-2.14"/>
   <path id="svg_51" fill-rule="nonzero" fill="#ff6224" d="m236.77015,365.37145l-61.459,0a1.07,1.07 0 1 0 0,2.14l61.459,0a1.07,1.07 0 0 0 0,-2.14"/>
   <path id="svg_52" fill-rule="nonzero" fill="#ff6224" d="m207.45115,358.56347l-32.14,0a1.07,1.07 0 0 0 0,2.14l32.14,0a1.07,1.07 0 0 0 0,-2.14"/>
   <path id="svg_53" fill-rule="nonzero" fill="#20c3c5" d="m207.45115,351.75747l-32.14,0a1.07,1.07 0 0 0 0,2.14l32.14,0a1.07,1.07 0 0 0 0,-2.14"/>
   <path id="svg_54" fill-rule="nonzero" fill="#fff" d="m236.77015,378.98547l-23.096,0a1.07,1.07 0 1 0 0,2.14l23.096,0a1.07,1.07 0 0 0 0,-2.14"/>
   <path id="svg_55" fill-rule="nonzero" fill="#ff6224" d="m267.27714,394.27148l-16.331,-16.331a1.07,1.07 0 1 0 -1.513,1.513l16.331,16.331a1.07,1.07 0 1 0 1.513,-1.513"/>
   <path id="svg_56" fill-rule="nonzero" fill="#ff6224" d="m267.98616,363.37746c0,-5.318 -4.312,-9.63 -9.631,-9.63c-5.318,0 -9.63,4.312 -9.63,9.63c0,5.319 4.312,9.63 9.63,9.63c5.319,0 9.631,-4.311 9.631,-9.63"/>
   <path id="svg_57" fill-rule="nonzero" fill="#20c3c5" d="m257.09516,356.66647a5.451,5.451 0 1 0 -10.903,0a5.452,5.452 0 0 0 10.903,0"/>
   <path id="svg_58" fill-rule="nonzero" fill="#383873" d="m169.57415,347.53945l0,-19.471l17.895,17.895"/>
   <path id="svg_59" fill-rule="nonzero" fill="#86bfbc" d="m150.52615,322.80546l39.262,0l14.198,-27.326l-39.262,0l-14.198,27.326z"/>
   <path id="svg_60" fill-rule="nonzero" fill="#fff" d="m165.51815,297.50047l-11.756,22.626a0.713,0.713 0 0 0 0.632,1.041l33.966,0c0.266,0 0.51,-0.147 0.633,-0.384l11.756,-22.626a0.712,0.712 0 0 0 -0.632,-1.041l-33.967,0a0.712,0.712 0 0 0 -0.632,0.384"/>
   <path id="svg_61" fill-rule="nonzero" fill="#b8e3e2" d="m196.52315,295.47947l-31.799,0l0,-3.647l31.799,0l0,3.647z"/>
   <path id="svg_62" fill-rule="nonzero" fill="#9fccc9" d="m223.84214,295.47947l-31.379,0a1.824,1.824 0 1 1 0,-3.647l31.379,0a1.823,1.823 0 1 1 0,3.647"/>
   <path id="svg_63" fill-rule="nonzero" fill="#b8e3e2" d="m164.72316,295.47947l-14.198,27.326l-0.711,-0.534a1.168,1.168 0 0 1 -0.333,-1.48l15.242,-28.959l0,3.647z"/>
   <path id="svg_64" fill-rule="nonzero" fill="#9fccc9" d="m179.01915,293.16947l-3.501,0l0,0.607l3.501,0l0,-0.607zm4.4,0l-3.5,0l0,0.607l3.5,0l0,-0.607zm4.4,0l-3.5,0l0,0.607l3.5,0l0,-0.607z"/>
   <path id="svg_65" fill-rule="nonzero" fill="#383873" d="m236.30516,241.99447s-32.567,-25.356 -37.732,-31.798c-1.948,-2.439 -5.345,-6.712 -8.864,-11.091c-5.778,-7.194 -11.909,-14.691 -12.637,-14.872c-1.162,-0.294 -10.935,7.146 -11.23,8.75c-0.18,0.999 8.717,16.272 16.419,28.549c4.69,7.464 8.929,13.832 10.419,15.207c3.937,3.651 28.164,16.484 28.164,16.484l15.461,-11.229z"/>
   <g id="svg_66"/>
   <g id="svg_67" opacity="0.14999" clip-path="url(#b)">
    <path id="svg_68" stroke-miterlimit="10" stroke-linecap="round" stroke-width="0.818" stroke="#000" fill="none" d="m174.15716,189.64546s30.425,43.306 45.698,50.599"/>
   </g>
   <path id="svg_69" fill-rule="nonzero" fill="#382424" d="m270.24714,353.19347a36.554,36.554 0 0 0 -1.179,-2.439c-2.382,-4.551 -0.622,-9.11 -3.34,-10.272a3.115,3.115 0 0 0 -0.547,-0.172c-3.503,-0.778 -11.574,3.888 -11.926,6.22c-0.352,2.333 2.488,6.328 0,6.81c-2.487,0.483 -3.83,-3.699 -3.83,-3.699c-2.046,-0.213 -2.775,3.217 -6.131,3.217c-0.475,0 -0.941,-0.066 -1.391,-0.181c-1.58,-0.393 -2.963,-1.366 -3.847,-2.12c-0.655,-0.548 -1.032,-0.982 -1.032,-0.982s-2.987,1.891 -2.847,5.615c0.237,5.901 2.414,10.207 7.661,11.082c0.581,6.565 5.982,10.067 13.201,10.289c6.327,0.196 7.276,-5.493 7.424,-6.909c-0.057,1.056 -0.352,4.527 -1.858,6.909c3.167,0.139 5.958,-2.12 5.23,-9.487c0.728,2.194 3.282,3.577 5.247,1.973c-1.817,0 -3.569,-3.061 -3.569,-3.061s2.136,-1.367 3.593,-3.896c1.211,-2.087 0.753,-5.173 -0.859,-8.897"/>
   <path id="svg_70" fill-rule="nonzero" fill="#ffad94" d="m265.72917,340.48246l-0.081,-1.081l-0.278,-3.83s-5.828,-4.985 -9.135,0c-0.025,0.033 -0.041,0.066 -0.073,0.099c-1.024,1.521 -1.949,2.054 -2.791,2.152c-1.826,0.221 -3.299,-1.564 -4.822,0.368c-4.354,5.525 -6.089,11.925 -6.645,14.487c0.45,0.115 0.916,0.18 1.39,0.18c3.357,0 4.085,-3.429 6.131,-3.216c0,0 1.343,4.182 3.83,3.699c2.489,-0.483 -0.351,-4.477 0,-6.81c0.157,-1.039 1.851,-2.545 3.995,-3.822c2.497,-1.497 5.607,-2.684 7.579,-2.455a3.127,3.127 0 0 1 0.9,0.229"/>
   <g id="svg_71"/>
   <g id="svg_72" opacity="0.25" clip-path="url(#c)">
    <path id="svg_73" fill-rule="nonzero" fill="#000" d="m266.63816,333.35346c-2.628,-1.793 -7.44,-2.087 -7.44,-2.087l-3.937,0.581s-1.645,2.39 -0.876,3.724c0.148,0.262 0.516,0.622 1.039,1.048c1.057,0.867 2.759,1.98 4.519,2.897c1.816,0.941 3.691,1.686 5.042,1.768c3.306,0.188 4.28,-6.131 1.653,-7.931"/>
   </g>
   <path id="svg_74" fill-rule="nonzero" fill="#20c3c5" d="m265.86015,269.51147c-5.859,-1.129 -18.26,2.325 -24.193,4.993c-1.752,0.786 -2.948,1.506 -3.234,2.014c-1.137,2.005 0.008,3.544 2.832,9.911c0.32,0.721 0.655,1.498 1.015,2.341c1.915,4.51 1.924,14.127 1.915,22.419c-0.024,7.095 -0.057,13.218 1.072,14.306c2.447,2.358 14.659,10.076 14.659,10.076l2.431,-12.67s1.375,-6.434 2.824,-14.831c2.668,-15.461 5.599,-37.609 0.679,-38.559"/>
   <path id="svg_75" fill-rule="nonzero" fill="#383873" d="m269.94514,263.87347c0,-0.581 -5.836,-14.192 -10.73,-16.141c-4.895,-1.948 -34.393,0.197 -34.393,0.197l-14.585,-9.535l3.053,-28.729l2.128,-20.02l0.065,-0.647c-4.461,-2.913 -15.698,-3.699 -16.91,-1.187c-0.008,0.008 -0.008,0.017 -0.008,0.017c-1.17,2.529 -19.062,56.401 -12.056,65.74c6.998,9.33 51.924,22.951 51.924,22.951c1.171,-0.746 2.53,-1.417 4.011,-2.014c4.992,-2.046 11.336,-3.331 16.165,-4.084c1.857,-0.287 3.486,-0.5 4.731,-0.647c1.571,-0.188 2.52,-0.262 2.52,-0.262s4.085,-5.05 4.085,-5.639"/>
   <path id="svg_76" fill-rule="nonzero" fill="#0c2059" d="m217.33216,170.23047l-37.928,0c-0.188,0.671 0.065,1.351 0.638,2.038c1.539,1.85 5.394,3.708 9.11,5.313c3.528,1.522 6.916,2.831 8.054,3.731c2.676,2.12 1.44,6.245 1.367,6.499c0.409,-0.843 1.956,-1.317 4.002,-1.457c4.019,-0.286 9.953,0.712 12.907,2.644l-0.065,0.647c1.13,-2.161 1.661,-12.843 1.842,-17.377c0.049,-1.252 0.073,-2.038 0.073,-2.038"/>
   <path id="svg_77" fill-rule="nonzero" fill="#2e4780" d="m202.57615,186.35346c-0.115,-1.809 -0.376,-4.738 -0.9,-5.524c-0.778,-1.171 -9.143,-5.255 -10.305,-4.863c-0.753,0.246 -1.67,1.065 -2.218,1.614c3.527,1.522 6.916,2.831 8.054,3.731c2.676,2.12 1.44,6.245 1.367,6.499c0.409,-0.843 1.956,-1.317 4.002,-1.457"/>
   <path id="svg_78" fill-rule="nonzero" fill="#2e4780" d="m217.33216,170.23047l-37.928,0c-0.188,0.671 0.065,1.351 0.638,2.038l37.217,0c0.049,-1.252 0.073,-2.038 0.073,-2.038"/>
   <path id="svg_79" fill-rule="nonzero" fill="#0c2059" d="m177.07215,184.23347s-2.881,-7.595 -5.377,-11.613c-0.991,-1.605 -1.932,-2.645 -2.595,-2.391c-2.333,0.876 -25.774,20.806 -23.531,22.263c0.327,0.213 0.851,0.36 1.506,0.442c2.038,0.262 5.418,-0.024 8.545,-0.344c2.684,-0.278 5.181,-0.581 6.482,-0.581c3.306,0 3.741,0.974 3.741,0.974c0.073,-0.385 0.695,-1.113 1.62,-1.997c2.898,-2.75 8.725,-6.974 9.609,-6.753"/>
   <path id="svg_80" fill-rule="nonzero" fill="#2e4780" d="m167.46215,190.98746c-4.968,-3.29 -10.149,-1.31 -11.172,-0.557c-0.753,0.549 -0.753,1.572 -0.671,2.161c2.684,-0.278 5.18,-0.581 6.482,-0.581c3.306,0 3.74,0.974 3.74,0.974c0.074,-0.385 0.696,-1.113 1.621,-1.997"/>
   <path id="svg_81" fill-rule="nonzero" fill="#2e4780" d="m171.69415,172.62147c-0.99,-1.604 -1.932,-2.645 -2.595,-2.391c-2.332,0.876 -25.774,20.806 -23.531,22.263c0.328,0.213 0.852,0.36 1.506,0.442l24.62,-20.314z"/>
   <path id="svg_82" fill-rule="nonzero" fill="#ffad94" d="m241.68214,294.33646c-1.833,-2.554 -5.115,-6.45 -7.816,-6.057c-0.098,0.016 -0.205,0.033 -0.335,0.057c-5.158,0.909 -35.482,8.513 -36.914,8.799c-1.457,0.286 -11.664,0.385 -11.082,1.457c0.581,1.072 6.417,4.469 7.972,4.387c1.555,-0.082 7.685,-1.858 13.807,-1.662c6.131,0.189 22.173,0 22.173,0l0.778,1.342l1.146,1.982c-0.32,-5.943 6.842,-10.788 10.271,-10.305"/>
   <g id="svg_83"/>
   <g id="svg_84" opacity="0.14999" clip-path="url(#d)">
    <path id="svg_85" stroke-miterlimit="10" stroke-linecap="round" stroke-width="0.818" stroke="#000" fill="none" d="m241.68214,272.18946s-1.397,-7.439 4.048,-9.919"/>
   </g>
   <g id="svg_86"/>
   <g id="svg_87" opacity="0.14999" clip-path="url(#e)">
    <path id="svg_88" stroke-miterlimit="10" stroke-linecap="round" stroke-width="0.818" stroke="#000" fill="none" d="m238.82514,266.20846s-36.023,-15.365 -37.752,-20.13c-1.729,-4.765 9.164,-56.433 9.164,-56.433"/>
   </g>
   <g id="svg_89"/>
   <g id="svg_90" opacity="0.14999" clip-path="url(#f)">
    <path id="svg_91" fill-rule="nonzero" fill="#000" d="m269.94514,263.87347c0,-0.581 -5.836,-14.192 -10.73,-16.141c-4.895,-1.948 -34.393,0.197 -34.393,0.197l-14.585,-9.535l3.053,-28.729s-6.163,32.812 -6.163,34.957c0,1.833 40.744,13.546 51.482,25.799c4.207,-0.663 7.251,-0.909 7.251,-0.909s4.085,-5.05 4.085,-5.639"/>
   </g>
   <g id="svg_92"/>
   <g id="svg_93" opacity="0.25" clip-path="url(#g)">
    <path id="svg_94" fill-rule="nonzero" fill="#000" d="m250.73515,298.69047c-2.529,-3.585 -6.605,-8.135 -9.47,-12.261c0.32,0.721 0.655,1.498 1.015,2.341c1.915,4.51 1.924,14.127 1.915,22.419l8.733,5.778s1.891,-12.49 -2.193,-18.277"/>
   </g>
   <path id="svg_95" fill-rule="nonzero" fill="#169799" d="m243.27915,295.44146a34.256,34.256 0 0 0 -1.146,-1.007a1.848,1.848 0 0 0 -0.451,-0.097c-3.428,-0.484 -10.591,4.362 -10.271,10.304c0.024,0.442 0.377,1.325 0.949,2.48c2.931,5.909 11.745,19.062 13.366,18.457c0,0 5.663,-0.876 7.202,-8.611c1.441,-7.259 -3.756,-16.067 -9.649,-21.526"/>
   <g id="svg_96"/>
   <g id="svg_97" opacity="0.25" clip-path="url(#h)">
    <path id="svg_98" fill-rule="nonzero" fill="#000" d="m263.33915,269.77346c-1.244,0.146 -2.873,0.359 -4.73,0.646c-4.83,0.753 -11.173,2.039 -16.166,4.084c4.404,0.156 13.825,3.053 14.962,24.621a106.118,106.118 0 0 1 2.373,-12.498c1.45,-5.689 2.816,-11.689 3.561,-16.853"/>
   </g>
   <g id="svg_99"/>
   <g id="svg_100" opacity="0.25" clip-path="url(#i)">
    <path id="svg_101" fill-rule="nonzero" fill="#000" d="m261.01515,340.91546c-0.45,-0.524 -0.802,-0.999 -1.072,-1.399c-1.76,-0.917 -3.462,-2.03 -4.519,-2.898c-0.736,0.81 -1.416,1.13 -2.054,1.203l3.879,4.886a21.184,21.184 0 0 1 3.766,-1.792"/>
   </g>
   <g id="svg_102"/>
   <g id="svg_103" opacity="0.25" clip-path="url(#j)">
    <path id="svg_104" fill-rule="nonzero" fill="#000" d="m241.68214,294.33646c-1.833,-2.554 -5.115,-6.45 -7.816,-6.057c-0.098,0.016 -0.205,0.033 -0.335,0.057c-3.34,4.829 -3.463,11.156 -3.266,14.323l1.146,1.982c-0.32,-5.943 6.842,-10.788 10.271,-10.305"/>
   </g>
   <g id="svg_105"/>
   <g id="svg_106" opacity="0.25" clip-path="url(#k)">
    <path id="svg_107" fill-rule="nonzero" fill="#000" d="m270.24714,353.19347a36.554,36.554 0 0 0 -1.179,-2.439c-1.171,-2.234 -1.334,-4.461 -1.53,-6.302c-0.394,0.303 -0.794,0.581 -1.195,0.818c-2.53,-1.506 -4.232,-3.069 -5.328,-4.354l-0.009,-0.008c-3.569,1.277 -7.505,4.01 -7.751,5.622c-0.352,2.333 2.488,6.328 0,6.81c-2.487,0.483 -3.83,-3.699 -3.83,-3.699c-2.046,-0.213 -2.775,3.217 -6.131,3.217c-0.475,0 -0.941,-0.066 -1.391,-0.181c-1.58,-0.393 -2.963,-1.366 -3.847,-2.12c0,0 3.782,5.312 9.715,4.24c0,0 -0.867,1.654 -4.861,1.457c8.364,2.726 13.709,1.653 16.287,-1.359c2.104,-2.463 7.039,-5.508 11.05,-1.702"/>
   </g>
   <path id="svg_108" fill-rule="nonzero" fill="#b8e3e2" d="m287.25517,238.39347l-29.179,0s23.147,6.81 23.147,52.71c0,0.59 0,1.171 -0.008,1.752c-0.237,30.676 -6.794,47.594 -14.872,52.415c2.529,1.498 5.892,2.93 10.337,3.92c1.94,0.442 4.076,0.794 6.442,1.04c19.979,2.038 35.939,-5.795 37.838,-14.659c1.891,-8.865 -9.789,-97.178 -33.705,-97.178"/>
   <path id="svg_109" fill-rule="nonzero" fill="#86bfbc" d="m281.22316,291.10346c0,-45.9 -23.146,-52.71 -23.146,-52.71l-47.84,0l1.988,1.416l12.597,8.119l25.283,1.752c1.358,5.639 5.057,5.827 10.697,6.417c3.282,0.335 3.602,5.876 2.603,13.201c-0.729,5.272 -2.136,11.468 -3.626,17.328a105.99,105.99 0 0 0 -2.373,12.498a109.532,109.532 0 0 0 -0.91,13.481c-0.073,9.674 1.106,17.94 2.35,23.915c0.114,0.582 0.237,1.138 0.36,1.67c0,0.017 0.008,0.041 0.008,0.058c0.114,0.253 0.614,1.284 1.792,2.66l0.009,0.008c1.097,1.285 2.799,2.848 5.328,4.354c0.401,-0.237 0.802,-0.516 1.195,-0.818c7.522,-5.73 13.448,-22.452 13.677,-51.597c0.008,-0.581 0.008,-1.162 0.008,-1.752"/>
   <path id="svg_110" fill-rule="nonzero" fill="#b8e3e2" d="m271.99116,170.23047l-34.441,0c-1.179,0 -1.695,1.49 -0.762,2.219l8.619,6.744a15.813,15.813 0 0 1 6.057,12.44l0,46.76l6.613,0l0,-46.76c0,-4.853 2.234,-9.445 6.064,-12.44l8.611,-6.744c0.933,-0.729 0.418,-2.219 -0.761,-2.219"/>
   <g id="svg_111"/>
   <g id="svg_112" opacity="0.25" clip-path="url(#l)">
    <path id="svg_113" stroke-miterlimit="10" stroke-linecap="round" stroke-width="0.818" stroke="#000" fill="none" d="m298.25917,348.46847s0.251,-0.643 0.663,-1.931"/>
    <path id="svg_114" stroke-dashoffset="0" stroke-dasharray="4.153,4.153" stroke-miterlimit="10" stroke-linecap="round" stroke-width="0.818" stroke="#000" fill="none" d="m300.08015,342.55447c1.171,-4.388 2.691,-11.224 3.898,-20.527c3.131,-24.155 -0.049,-58.058 -21.053,-79.535"/>
    <path id="svg_115" stroke-miterlimit="10" stroke-linecap="round" stroke-width="0.818" stroke="#000" fill="none" d="m281.44215,241.02647c-0.491,-0.47 -0.992,-0.934 -1.502,-1.391"/>
   </g>
   <g id="svg_116"/>
   <g id="svg_117" opacity="0.14999" clip-path="url(#m)">
    <path id="svg_118" fill-rule="nonzero" fill="#000" d="m258.07716,238.39347l0,-12.769c-2.292,-1.194 -4.616,-2.111 -6.613,-2.782l0,15.551l6.613,0z"/>
   </g>
   <g id="svg_119"/>
   <g id="svg_120" opacity="0.14999" clip-path="url(#n)">
    <path id="svg_121" fill-rule="nonzero" fill="#000" d="m267.21916,258.23347c-1.556,-4.861 -11.271,-3.991 -12.449,-7.587c-2.502,-7.631 -3.888,-4.272 -13.505,-5.247c-5.5,-0.557 -9.494,-4.084 -11.9,-7.006l-19.128,0l1.988,1.416l12.597,8.119l25.283,1.752c1.358,5.639 5.057,5.827 10.697,6.417c3.282,0.335 3.602,5.876 2.603,13.201c-0.729,5.272 -2.136,11.468 -3.626,17.329a105.71,105.71 0 0 0 -2.373,12.498a109.503,109.503 0 0 0 -0.91,13.48c3.742,-19.497 11.877,-50.77 10.723,-54.372"/>
   </g>
   <g id="svg_122"/>
   <g id="svg_123" opacity="0.14999" clip-path="url(#o)">
    <path id="svg_124" fill-rule="nonzero" fill="#000" d="m281.22316,291.10346c0,0.59 0,1.171 -0.008,1.752c-0.237,30.676 -6.794,47.594 -14.872,52.415c2.529,1.498 5.893,2.93 10.337,3.92c-1.334,-1.923 -2.726,-4.812 -2.07,-7.898c1.171,-5.459 14.397,-26.461 9.339,-60.109c-3.651,-24.276 -2.44,-36.905 1.375,-42.79l-27.247,0s23.146,6.81 23.146,52.71"/>
   </g>
   <g id="svg_125"/>
   <g id="svg_126" opacity="0.25" clip-path="url(#p)">
    <path id="svg_127" fill-rule="nonzero" fill="#000" d="m114.27815,316.10847c-0.017,-1.064 -0.115,-2.071 -0.311,-2.963l-9.388,0c-2.759,1.833 -7.26,5.459 -9.961,10.901c2.513,-2.733 6.802,-6.064 11.172,-7.079c3.814,-0.883 6.655,-0.507 8.488,-0.859"/>
   </g>
   <path id="svg_128" fill-rule="nonzero" fill="#20c3c5" d="m136.08215,353.38146c-1.048,-3.806 -5.852,-11.189 -10.239,-19.096c-4.797,-8.626 -9.085,-17.867 -7.407,-23.735c0.417,-1.474 0.605,-2.554 0.605,-3.331c0.017,-2.554 -1.923,-1.76 -3.879,-0.312c-1.997,1.482 -4.019,3.643 -4.019,3.643l0.147,11.377s-6.45,5.926 -1.154,18.89c0.336,0.818 0.72,1.67 1.154,2.554c7.293,14.732 18.228,30.194 7.874,34.572c14.299,0.876 19.111,-16.599 16.918,-24.562"/>
   <g id="svg_129"/>
   <g id="svg_130" opacity="0.53" clip-path="url(#q)">
    <path id="svg_131" fill-rule="nonzero" fill="#000" d="m119.16415,377.94347c2.678,-0.583 5.012,-2.378 6.492,-4.668c0.399,-0.56 0.682,-1.186 0.999,-1.793c0.238,-0.641 0.543,-1.262 0.705,-1.929c0.191,-0.658 0.378,-1.318 0.475,-1.997l0.178,-1.012l0.064,-1.034c-0.057,-2.769 -0.937,-5.412 -1.85,-7.978c-0.952,-2.565 -2.052,-5.068 -3.189,-7.55c-2.277,-4.964 -4.732,-9.842 -6.898,-14.838c-1.073,-2.499 -2.101,-5.023 -2.862,-7.618a24.831,24.831 0 0 1 -0.85,-3.934c-0.166,-1.315 -0.155,-2.67 0.265,-3.863l0.004,-0.012a0.409,0.409 0 0 0 -0.772,-0.271l-0.002,0.006c-0.47,1.402 -0.444,2.858 -0.257,4.234a25.47,25.47 0 0 0 0.926,4.045c0.809,2.635 1.877,5.161 2.986,7.661c2.239,4.99 4.754,9.836 7.089,14.763c1.165,2.463 2.293,4.945 3.273,7.485c0.941,2.539 1.843,5.157 1.932,7.871l-0.049,1.009l-0.164,1.004c-0.088,0.676 -0.265,1.331 -0.446,1.986c-0.152,0.663 -0.446,1.281 -0.675,1.92c-0.306,0.605 -0.579,1.23 -0.968,1.789c-1.439,2.289 -3.736,4.108 -6.406,4.724"/>
   </g>
   <path id="svg_132" fill-rule="nonzero" fill="#169799" d="m129.51815,330.39046c-4.371,-11.524 0,-20.266 -6.564,-21.51c-3.004,-0.573 -4.33,1.654 -4.878,4.24c-0.655,3.061 -0.221,6.622 -0.221,6.622s1.113,2.848 3.454,5.614c1.907,2.251 4.616,4.444 8.209,5.034"/>
   <path id="svg_133" fill-rule="nonzero" fill="#b8e3e2" d="m114.27815,316.10847c-0.025,-2.685 -0.63,-4.96 -1.875,-6.155a3.86,3.86 0 0 0 -0.36,-0.32c-3.102,-2.512 -5.082,2.087 -5.082,2.087s-8.25,4.069 -12.343,12.326c-3.135,6.344 -3.831,15.167 3.544,26.511c1.08,-8.078 5.508,-13.578 9.895,-18.8l0,-0.008c0.549,-0.655 1.089,-1.293 1.629,-1.94c3.037,-3.642 4.633,-9.241 4.592,-13.701"/>
   <g id="svg_134"/>
   <g id="svg_135" opacity="0.53" clip-path="url(#r)">
    <path id="svg_136" fill-rule="nonzero" fill="#000" d="m98.16015,350.55648a35.985,35.985 0 0 1 -0.557,-10.572c0.372,-3.507 1.337,-6.992 3.242,-9.961c1.833,-3.019 4.379,-5.504 6.688,-8.218c1.148,-1.361 2.252,-2.806 3.025,-4.465a10.616,10.616 0 0 0 0.992,-5.366a0.408,0.408 0 1 0 -0.815,0.074a9.856,9.856 0 0 1 -0.829,4.997c-0.697,1.578 -1.738,3.004 -2.846,4.368c-2.227,2.725 -4.759,5.293 -6.566,8.398c-1.881,3.062 -2.79,6.622 -3.094,10.154a36.075,36.075 0 0 0 0.76,10.591"/>
   </g>
   <g id="svg_137"/>
   <g id="svg_138" opacity="0.25" clip-path="url(#s)">
    <path id="svg_139" fill-rule="nonzero" fill="#000" d="m129.52116,330.39046c-1.253,-1.45 -2.419,-2.973 -3.534,-4.528c-1.106,-1.561 -2.165,-3.156 -3.114,-4.813c-1.894,-3.299 -3.504,-6.836 -4.033,-10.555l-0.002,-0.014a0.409,0.409 0 1 0 -0.808,0.13c0.698,3.883 2.469,7.39 4.492,10.65c1.016,1.635 2.137,3.198 3.301,4.724a63.555,63.555 0 0 0 3.698,4.406"/>
   </g>
   <path id="svg_140" fill-rule="nonzero" fill="#b8e3e2" d="m126.86616,310.26347l-2.799,-17.187a1.534,1.534 0 0 0 -1.506,-1.245l-17.442,0c-0.736,0 -1.367,0.524 -1.506,1.245l-2.275,13.955l-0.524,3.232a1.532,1.532 0 0 0 1.506,1.81l23.04,0c0.958,0 1.678,-0.869 1.506,-1.81"/>
   <path id="svg_141" fill-rule="nonzero" fill="#86bfbc" d="m129.51815,306.76046l-31.356,0l0.827,4.682a2.07,2.07 0 0 0 2.03,1.703l25.651,0c0.99,0 1.849,-0.721 2.021,-1.703l0.827,-4.682z"/>
   <g id="svg_142"/>
   <g id="svg_143" opacity="0.25" clip-path="url(#t)">
    <path id="svg_144" fill-rule="nonzero" fill="#000" d="m117.85516,319.74247s-0.434,-3.544 0.213,-6.597l-4.101,0c0.197,0.892 0.295,1.899 0.311,2.963c0.041,4.46 -1.555,10.059 -4.591,13.701c-0.54,0.647 -1.081,1.286 -1.629,1.94l0,0.009c0.065,2.512 0.638,5.524 2.079,9.06c0.237,-4.134 1.252,-11.32 5.377,-12.081c3.135,-0.573 7.219,2.537 10.329,5.549c-1.645,-2.954 -3.224,-5.982 -4.534,-8.93c-2.341,-2.765 -3.454,-5.614 -3.454,-5.614"/>
   </g>
   <g id="svg_145"/>
   <g id="svg_146" opacity="0.25" clip-path="url(#u)">
    <path id="svg_147" fill-rule="nonzero" fill="#000" d="m115.53015,291.83146l-10.411,0c-0.736,0 -1.367,0.523 -1.506,1.244l-2.234,13.685l8.995,0c-0.221,-1.915 -0.491,-5.492 0.188,-8.267c0.532,-2.201 2.464,-5.033 4.968,-6.662"/>
   </g>
   <path id="svg_148" fill-rule="nonzero" fill="#383873" d="m194.40315,433.40847l-44.606,0a3.989,3.989 0 0 0 -3.989,3.988l0,33.174a3.989,3.989 0 0 0 3.989,3.988l44.606,0a3.988,3.988 0 0 0 3.988,-3.988l0,-33.174a3.988,3.988 0 0 0 -3.988,-3.988"/>
   <path id="svg_149" fill-rule="nonzero" fill="#fff" d="m158.05215,460.00347l0,-4.429c0,-0.354 0.288,-0.642 0.643,-0.642l2.451,0c0.355,0 0.642,0.288 0.642,0.642l0,4.429c0,0.355 0.288,0.643 0.643,0.643l0.237,0a0.643,0.643 0 0 0 0.642,-0.643l0,-12.04a0.643,0.643 0 0 0 -0.642,-0.642l-0.237,0a0.643,0.643 0 0 0 -0.643,0.642l0,4.943a0.641,0.641 0 0 1 -0.642,0.642l-2.451,0a0.642,0.642 0 0 1 -0.643,-0.642l0,-4.943a0.643,0.643 0 0 0 -0.643,-0.642l-0.237,0a0.642,0.642 0 0 0 -0.642,0.642l0,12.04c0,0.355 0.287,0.643 0.642,0.643l0.237,0a0.643,0.643 0 0 0 0.643,-0.643"/>
   <path id="svg_150" fill-rule="nonzero" fill="#fff" d="m166.59816,459.28146l-1.147,0a0.643,0.643 0 0 0 -0.642,0.642l0,0.08c0,0.355 0.288,0.642 0.642,0.642l5.101,0a0.641,0.641 0 0 0 0.642,-0.642l0,-0.08a0.642,0.642 0 0 0 -0.642,-0.642l-1.147,0a0.642,0.642 0 0 1 -0.642,-0.643l0,-10.675a0.643,0.643 0 0 0 -0.643,-0.642l-0.237,0a0.643,0.643 0 0 0 -0.643,0.642l0,10.675a0.643,0.643 0 0 1 -0.642,0.643"/>
   <path id="svg_151" fill-rule="nonzero" fill="#fff" d="m180.66215,453.05447c-0.099,1.76 -0.198,3.716 -0.138,5.219l-0.079,0a78.076,78.076 0 0 0 -1.068,-4.626l-1.641,-6.247l-0.969,0l-1.562,5.99c-0.435,1.7 -0.829,3.341 -1.086,4.883l-0.06,0c0,-1.562 -0.08,-3.42 -0.158,-5.318l-0.229,-5.021a0.642,0.642 0 0 0 -0.642,-0.613l-0.069,0a0.642,0.642 0 0 0 -0.641,0.68l0.715,12.04c0.02,0.339 0.301,0.604 0.641,0.604l0.537,0a0.642,0.642 0 0 0 0.622,-0.482l1.439,-5.607c0.454,-1.759 0.79,-3.064 1.067,-4.586l0.059,0c0.257,1.522 0.554,2.788 0.989,4.586l1.382,5.601a0.642,0.642 0 0 0 0.623,0.488l0.591,0c0.34,0 0.621,-0.265 0.641,-0.605l0.696,-12.04a0.642,0.642 0 0 0 -0.641,-0.679l-0.131,0a0.642,0.642 0 0 0 -0.641,0.611l-0.247,5.122z"/>
   <path id="svg_152" fill-rule="nonzero" fill="#fff" d="m185.07615,460.64547l0.238,0a0.642,0.642 0 0 0 0.642,-0.643l0,-10.754c0,-0.355 0.288,-0.643 0.642,-0.643l2.472,0a0.642,0.642 0 0 0 0,-1.285l-3.994,0a0.643,0.643 0 0 0 -0.642,0.643l0,12.039c0,0.355 0.288,0.643 0.642,0.643"/>
   <path id="svg_153" fill-rule="nonzero" fill="#383873" d="m214.73814,471.03347c1.669,0 2.063,1.123 2.063,2.124c0,0.88 -0.09,1.73 -0.181,2.58c-0.091,0.91 -0.183,1.73 -0.183,2.67c0,2.731 1.67,3.884 3.824,3.884l0.365,0l0,-1.577l-0.456,0c-1.275,0 -1.79,-0.911 -1.79,-2.276c0,-0.82 0.091,-1.578 0.182,-2.307c0.061,-0.789 0.152,-1.517 0.152,-2.245c0.03,-2.368 -0.789,-3.187 -2.094,-3.551l0,-0.061c1.305,-0.394 2.124,-1.214 2.094,-3.611c0,-0.759 -0.091,-1.517 -0.152,-2.276c-0.091,-0.759 -0.182,-1.518 -0.182,-2.337c0,-1.366 0.455,-2.306 1.821,-2.306l0.425,0l0,-1.578l-0.395,0c-2.003,0 -3.794,1.001 -3.794,3.884c0,0.911 0.092,1.821 0.183,2.701c0.091,0.88 0.181,1.76 0.181,2.61c0,0.971 -0.394,2.154 -2.063,2.154l0,1.518z"/>
   <path id="svg_154" fill-rule="nonzero" fill="#383873" d="m245.67515,469.51546c-1.669,0 -2.063,-1.184 -2.063,-2.154c0,-0.85 0.09,-1.73 0.181,-2.61c0.091,-0.88 0.183,-1.791 0.183,-2.701c0,-2.883 -1.791,-3.885 -3.794,-3.885l-0.395,0l0,1.579l0.425,0c1.366,0.151 1.821,0.94 1.821,2.306c0,0.819 -0.091,1.578 -0.152,2.337c-0.091,0.758 -0.182,1.517 -0.182,2.275c-0.03,2.398 0.788,3.217 2.094,3.612l0,0.06c-1.306,0.365 -2.124,1.184 -2.094,3.551c0,0.729 0.091,1.457 0.182,2.246c0.061,0.728 0.152,1.487 0.152,2.306c0,1.366 -0.516,2.124 -1.791,2.276l-0.455,0l0,1.578l0.365,0c2.154,0 3.824,-1.153 3.824,-3.884c0,-0.941 -0.092,-1.76 -0.183,-2.671c-0.091,-0.849 -0.181,-1.7 -0.181,-2.579c0,-1.001 0.394,-2.124 2.063,-2.124l0,-1.518z"/>
   <path id="svg_155" fill-rule="nonzero" fill="#ff6224" d="m235.26216,467.30947l0,5.838l-5.056,2.918l-5.055,-2.918l0,-5.838l5.055,-2.919l5.056,2.919z"/>
   <path id="svg_156" fill-rule="nonzero" fill="#ff6224" d="m273.29716,438.22347a12.325,12.325 0 0 1 -14.223,-2.324c-4.635,-4.636 -4.79,-12.067 -0.489,-16.905l-1.853,0.22a0.41,0.41 0 0 1 -0.097,-0.813l2.823,-0.336a0.411,0.411 0 0 1 0.455,0.358l0.324,2.731a0.409,0.409 0 1 1 -0.812,0.097l-0.207,-1.739c-4.037,4.517 -3.901,11.472 0.435,15.809a11.51,11.51 0 0 0 13.28,2.17a0.409,0.409 0 1 1 0.364,0.732"/>
   <path id="svg_157" fill-rule="nonzero" fill="#ff6224" d="m262.67317,415.57546a12.325,12.325 0 0 1 14.223,2.324c4.635,4.636 4.79,12.067 0.489,16.906l1.853,-0.22a0.409,0.409 0 1 1 0.097,0.812l-2.823,0.336a0.411,0.411 0 0 1 -0.454,-0.358l-0.325,-2.731a0.409,0.409 0 1 1 0.812,-0.097l0.207,1.739c4.038,-4.517 3.901,-11.472 -0.435,-15.809a11.51,11.51 0 0 0 -13.28,-2.17a0.41,0.41 0 0 1 -0.549,-0.184a0.41,0.41 0 0 1 0.185,-0.548"/>
   <path id="svg_158" fill-rule="nonzero" fill="#ff6224" d="m372.13316,392.60046l-74.073,0a2.445,2.445 0 0 0 0,4.89l74.073,0a2.445,2.445 0 1 0 0,-4.89"/>
   <path id="svg_159" fill-rule="nonzero" fill="#20c3c5" d="m345.68315,381.97347l-47.623,0a2.444,2.444 0 1 0 0,4.889l47.623,0a2.443,2.443 0 0 0 2.444,-2.445a2.443,2.443 0 0 0 -2.444,-2.444"/>
   <path id="svg_160" fill-rule="nonzero" fill="#20c3c5" d="m345.68315,370.56347l-47.623,0a2.444,2.444 0 1 0 0,4.889l47.623,0a2.444,2.444 0 1 0 0,-4.889"/>
   <path id="svg_161" fill-rule="nonzero" fill="#20c3c5" d="m109.48916,433.22045l-38.477,0a2.445,2.445 0 0 0 0,4.89l38.477,0a2.445,2.445 0 0 0 0,-4.89"/>
   <path id="svg_162" fill-rule="nonzero" fill="#ff6224" d="m94.96215,422.59347l-23.95,0a2.445,2.445 0 0 0 0,4.89l23.95,0a2.445,2.445 0 0 0 0,-4.89"/>
   <path id="svg_163" fill-rule="nonzero" fill="#ff6224" d="m94.96215,411.18346l-23.95,0a2.445,2.445 0 0 0 0,4.89l23.95,0a2.445,2.445 0 0 0 0,-4.89"/>
   <path id="svg_164" fill-rule="nonzero" fill="#169799" d="m338.76216,255.99847c-2.398,-6.957 -5.263,-13.03 -8.259,-18.514c-10.353,-18.915 -22.377,-30.947 -22.827,-48.585c0,0 -3.732,16.616 -0.736,35.546c1.677,10.633 5.475,21.993 13.243,31.553c21.615,26.584 18.415,50.762 18.415,50.762s10.837,-19.831 0.164,-50.762"/>
   <g id="svg_165"/>
   <g id="svg_166" opacity="0.25" clip-path="url(#v)">
    <path id="svg_167" fill-rule="nonzero" fill="#000" d="m313.29316,209.58846c-0.317,2.205 -0.231,4.352 -0.028,6.506a40.191,40.191 0 0 0 1.151,6.355c1.072,4.172 2.665,8.191 4.6,12.021c0.931,1.935 2.045,3.773 3.132,5.621l3.481,5.374c2.218,3.612 4.089,7.444 5.664,11.395a110.24,110.24 0 0 1 4.047,12.105a131.321,131.321 0 0 1 2.79,12.471c0.733,4.197 1.268,8.433 1.534,12.688c0.127,2.127 0.186,4.261 0.094,6.391c-0.053,1.063 -0.119,2.13 -0.293,3.181c-0.176,1.046 -0.37,2.113 -0.867,3.064c0.512,-0.943 0.726,-2.01 0.919,-3.055c0.191,-1.052 0.275,-2.119 0.346,-3.184c0.127,-2.134 0.103,-4.274 0.011,-6.408c-0.185,-4.27 -0.69,-8.522 -1.377,-12.74a131.605,131.605 0 0 0 -2.662,-12.541a110.4,110.4 0 0 0 -3.937,-12.212c-1.542,-3.995 -3.386,-7.882 -5.594,-11.569l-3.449,-5.394c-1.072,-1.831 -2.168,-3.652 -3.083,-5.567c-1.902,-3.789 -3.461,-7.756 -4.504,-11.856a43.593,43.593 0 0 1 -1.141,-6.229c-0.218,-2.084 -0.305,-4.239 -0.029,-6.266l0.005,-0.038a0.41,0.41 0 0 0 -0.81,-0.113"/>
   </g>
   <g id="svg_168"/>
   <g id="svg_169" opacity="0.25" clip-path="url(#w)">
    <path id="svg_170" fill-rule="nonzero" fill="#000" d="m330.50315,237.48547c-10.354,-18.915 -22.377,-30.947 -22.827,-48.585c0,0 -3.733,16.615 -0.736,35.546c6.71,2.742 16.148,7.211 23.563,13.039"/>
   </g>
   <path id="svg_171" fill-rule="nonzero" fill="#20c3c5" d="m313.67814,170.22846s-7.561,12.927 10.333,28.878c17.893,15.952 31.896,37.049 29.173,54.118c-17.114,-19.885 -62.625,-48.08 -49.789,-82.994l10.283,-0.002z"/>
   <g id="svg_172"/>
   <g id="svg_173" opacity="0.25" clip-path="url(#x)">
    <path id="svg_174" fill-rule="nonzero" fill="#000" d="m353.18415,253.22446c-1.708,-3.767 -3.997,-7.244 -6.461,-10.558c-2.49,-3.301 -5.229,-6.413 -8.145,-9.346c-2.889,-2.965 -6.081,-5.618 -9.244,-8.269c-3.144,-2.664 -5.993,-5.673 -8.534,-8.914c-5.076,-6.481 -9.047,-13.861 -11.438,-21.732c-1.168,-3.936 -1.971,-8 -2.084,-12.096c-0.12,-4.078 0.402,-8.229 2.035,-11.954a0.408,0.408 0 1 0 -0.748,-0.33l-0.002,0.004c-1.665,3.887 -2.156,8.15 -2.001,12.304c0.15,4.174 1,8.283 2.213,12.251c2.482,7.934 6.544,15.327 11.705,21.808c2.583,3.239 5.474,6.241 8.656,8.895c3.193,2.629 6.387,5.241 9.298,8.177c2.934,2.904 5.693,5.988 8.208,9.264c2.488,3.29 4.803,6.744 6.542,10.496"/>
   </g>
   <path id="svg_175" fill-rule="nonzero" fill="#169799" d="m56.87915,263.87446s-9.335,8.508 -14.295,29.781c28.59,-24.238 35.592,-45.825 35.592,-45.825l-21.297,16.044z"/>
   <g id="svg_176"/>
   <g id="svg_177" opacity="0.25" clip-path="url(#y)">
    <path id="svg_178" fill-rule="nonzero" fill="#000" d="m42.58416,293.65647a617.975,617.975 0 0 0 11.652,-17.269a321.049,321.049 0 0 0 5.542,-8.827c1.789,-2.981 3.54,-5.987 4.993,-9.187a0.409,0.409 0 1 0 -0.747,-0.333l-0.006,0.013c-1.357,3.151 -3.045,6.194 -4.769,9.197a326.757,326.757 0 0 1 -5.358,8.919a623.972,623.972 0 0 1 -11.307,17.487"/>
   </g>
   <path id="svg_179" fill-rule="nonzero" fill="#20c3c5" d="m77.59416,251.91447c-5.14,4.633 -12.752,9.224 -19.995,14.168c-9.634,6.572 -18.612,13.791 -20.274,22.606c-3.781,-31.814 33.222,-46.137 33.222,-46.137l0.074,-0.107l13.439,-19.602s5.492,18.276 -6.466,29.072"/>
   <g id="svg_180"/>
   <g id="svg_181" opacity="0.25" clip-path="url(#z)">
    <path id="svg_182" fill-rule="nonzero" fill="#000" d="m37.32515,288.68946c0.023,-3.546 1.053,-7.016 2.545,-10.201a31.297,31.297 0 0 1 6.184,-8.522c2.514,-2.478 5.415,-4.515 8.376,-6.436c2.96,-1.929 5.969,-3.791 8.896,-5.786c5.836,-3.965 11.429,-8.593 15.341,-14.6c3.971,-5.959 5.802,-13.184 5.803,-20.303a0.41,0.41 0 0 0 -0.819,-0.005l0,0.006c0.064,6.994 -1.656,14.074 -5.499,19.97c-3.787,5.941 -9.278,10.587 -15.058,14.595c-2.898,2.016 -5.887,3.906 -8.833,5.867c-2.946,1.952 -5.846,4.029 -8.352,6.547a31.488,31.488 0 0 0 -6.131,8.623c-1.468,3.212 -2.464,6.698 -2.453,10.245"/>
   </g>
   <path id="svg_183" fill-rule="nonzero" fill="#eaf9f8" d="m341.02815,156.03246l-248.609,0a7.1,7.1 0 1 0 0,14.198l248.609,0a7.1,7.1 0 1 0 0,-14.198"/>
  </g>
 </g>
</svg>