<svg xmlns="http://www.w3.org/2000/svg" viewBox="0 0 1000 1000" height="1000" width="1000" xml:space="preserve">
  <defs>
    <clipPath id="a" clipPathUnits="userSpaceOnUse">
      <path d="M0 500h500V0H0Z"/>
    </clipPath>
    <clipPath id="b" clipPathUnits="userSpaceOnUse">
      <path d="M216.925 155h46.517v-51.418h-46.517z"/>
    </clipPath>
    <clipPath id="c" clipPathUnits="userSpaceOnUse">
      <path d="M297.358 255.635h13.964v-10.022h-13.964z"/>
    </clipPath>
    <clipPath id="d" clipPathUnits="userSpaceOnUse">
      <path d="M284.29 186.945h5.027v-10.737h-5.027z"/>
    </clipPath>
    <clipPath id="e" clipPathUnits="userSpaceOnUse">
      <path d="M243.655 180.965h38.757v-77.383h-38.757z"/>
    </clipPath>
    <clipPath id="f" clipPathUnits="userSpaceOnUse">
      <path d="M250.304 184.767h62.818v-60.756h-62.818z"/>
    </clipPath>
    <clipPath id="g" clipPathUnits="userSpaceOnUse">
      <path d="M284.443 231.314h12.1v-30.538h-12.1z"/>
    </clipPath>
    <clipPath id="h" clipPathUnits="userSpaceOnUse">
      <path d="M285.621 213.471h20.896V184.12h-20.896z"/>
    </clipPath>
    <clipPath id="i" clipPathUnits="userSpaceOnUse">
      <path d="M296.548 257.055h7.645v-6.09h-7.645z"/>
    </clipPath>
    <clipPath id="j" clipPathUnits="userSpaceOnUse">
      <path d="M273.384 218.988h11.476v-16.389h-11.476Z"/>
    </clipPath>
    <clipPath id="k" clipPathUnits="userSpaceOnUse">
      <path d="M281.234 272.167h32.191v-16.913h-32.191z"/>
    </clipPath>
    <clipPath id="l" clipPathUnits="userSpaceOnUse">
      <path d="M322.71 263.224h25.887V153.573H322.71Z"/>
    </clipPath>
    <clipPath id="m" clipPathUnits="userSpaceOnUse">
      <path d="M294.641 152.74h6.613v-15.551h-6.613z"/>
    </clipPath>
    <clipPath id="n" clipPathUnits="userSpaceOnUse">
      <path d="M253.414 226.951h57.094V152.74h-57.094z"/>
    </clipPath>
    <clipPath id="o" clipPathUnits="userSpaceOnUse">
      <path d="M301.254 263.537h27.248V152.74h-27.248z"/>
    </clipPath>
    <clipPath id="p" clipPathUnits="userSpaceOnUse">
      <path d="M137.796 238.394h19.66v-10.902h-19.66z"/>
    </clipPath>
    <clipPath id="q" clipPathUnits="userSpaceOnUse">
      <path d="M154.719 292.29h16.537v-58.771h-16.537z"/>
    </clipPath>
    <clipPath id="r" clipPathUnits="userSpaceOnUse">
      <path d="M140.475 264.903h14.285v-38.959h-14.285Z"/>
    </clipPath>
    <clipPath id="s" clipPathUnits="userSpaceOnUse">
      <path d="M161.201 244.737h11.498v-20.262h-11.498z"/>
    </clipPath>
    <clipPath id="t" clipPathUnits="userSpaceOnUse">
      <path d="M151.236 255.164h17.785v-27.672h-17.785z"/>
    </clipPath>
    <clipPath id="u" clipPathUnits="userSpaceOnUse">
      <path d="M144.557 221.107h14.151v-14.929h-14.151z"/>
    </clipPath>
    <clipPath id="v" clipPathUnits="userSpaceOnUse">
      <path d="M356.262 221.107h26.867v-97.522h-26.867z"/>
    </clipPath>
    <clipPath id="w" clipPathUnits="userSpaceOnUse">
      <path d="M348.954 151.831h24.728v-48.584h-24.728z"/>
    </clipPath>
    <clipPath id="x" clipPathUnits="userSpaceOnUse">
      <path d="M349.713 167.571h46.649V84.127h-46.649z"/>
    </clipPath>
    <clipPath id="y" clipPathUnits="userSpaceOnUse">
      <path d="M85.762 208.002h22.224V172.14H85.762Z"/>
    </clipPath>
    <clipPath id="z" clipPathUnits="userSpaceOnUse">
      <path d="M80.503 203.035h47.144v-66.258H80.503Z"/>
    </clipPath>
  </defs>
  <path style="fill:#fff0;fill-opacity:1;fill-rule:nonzero;stroke:none" d="M0 0h500v500H0Z" transform="matrix(1.33333 0 0 -1.33333 0 1000)"/>
  <g clip-path="url(#a)" transform="matrix(1.33333 0 0 -1.33333 0 1000)">
    <path style="fill:#eaf9f800;fill-opacity:1;fill-rule:nonzero;stroke:none" d="M0 0c-23.343-34.949-73.155-143.037-60.902-183.151l-178.707-.041s-25.823 19.226-50.91 52.653a273.244 273.244 0 0 0-13.439 19.602c-4.616 7.399-9.02 15.29-13.022 23.638-11.631 24.21-19.93 52.268-20.266 83.28-1.17 107.352 91.744 207.124 218.142 166.863C7.293 122.583 23.335 34.949 0 0" transform="translate(417.757 267.728)"/>
    <path style="fill:#e03c03;fill-opacity:1;fill-rule:nonzero;stroke:none" d="M0 0c-.359 0-.715.157-.958.458L-96.26 118.952a1.228 1.228 0 1 0 1.913 1.539L.956 1.998A1.23 1.23 0 0 0 0 0" transform="translate(305.944 83.311)"/>
    <path style="fill:#ff6224;fill-opacity:1;fill-rule:nonzero;stroke:none" d="M0 0a1.226 1.226 0 0 0-.956 1.998l95.302 118.493a1.228 1.228 0 1 0 1.913-1.539L.958.458A1.229 1.229 0 0 0 0 0" transform="translate(158.112 83.311)"/>
    <path style="fill:#ff6224;fill-opacity:1;fill-rule:nonzero;stroke:none" d="M0 0c-.358 0-.714.157-.957.458l-95.302 118.494a1.228 1.228 0 1 0 1.913 1.539L.956 1.998A1.228 1.228 0 0 0 0 0" transform="translate(253.415 83.311)"/>
    <path style="fill:#e03c03;fill-opacity:1;fill-rule:nonzero;stroke:none" d="M0 0h-44.276a3.145 3.145 0 1 0 0 6.291H0A3.146 3.146 0 1 0 0 0" transform="translate(175 199.887)"/>
    <path style="fill:#ff6224;fill-opacity:1;fill-rule:nonzero;stroke:none" d="M0 0h-126.548a3.145 3.145 0 0 0 0 6.291H0Z" transform="translate(302.392 199.887)"/>
    <path style="fill:#e03c03;fill-opacity:1;fill-rule:nonzero;stroke:none" d="M0 0a3.436 3.436 0 1 0-6.872 0A3.436 3.436 0 0 0 0 0" transform="translate(209.2 143.786)"/>
    <path style="fill:#ffc947;fill-opacity:1;fill-rule:nonzero;stroke:none" d="M0 0a3.437 3.437 0 1 0-6.874.002A3.437 3.437 0 0 0 0 0" transform="translate(261.728 143.786)"/>
    <path style="fill:#20c3c5;fill-opacity:1;fill-rule:nonzero;stroke:none" d="M0 0h-44.606a3.988 3.988 0 0 0-3.988 3.988v33.174a3.988 3.988 0 0 0 3.988 3.988H0a3.988 3.988 0 0 0 3.988-3.988V3.988A3.988 3.988 0 0 0 0 0" transform="translate(216.007 300.096)"/>
    <path style="fill:#fff;fill-opacity:1;fill-rule:nonzero;stroke:none" d="M0 0a6.4 6.4 0 0 0-7.521 7.52c.476 2.516 2.505 4.544 5.021 5.02a6.398 6.398 0 0 0 7.52-7.52C4.544 2.504 2.515.476 0 0m10.056 9.017H8.405a9.91 9.91 0 0 1-1.114 2.539l1.273 1.274a1.242 1.242 0 0 1 0 1.758l-1.792 1.793a1.243 1.243 0 0 1-1.759 0l-1.354-1.354a9.82 9.82 0 0 1-2.397.966v2.03c0 .687-.556 1.244-1.243 1.244h-2.535a1.244 1.244 0 0 1-1.244-1.244V15.97a9.94 9.94 0 0 1-2.327-.925l-1.486 1.487a1.245 1.245 0 0 1-1.759 0l-1.793-1.793a1.245 1.245 0 0 1 0-1.759l1.377-1.376a9.982 9.982 0 0 1-1.082-2.375h-1.936a1.243 1.243 0 0 1-1.244-1.243V5.451c0-.687.557-1.243 1.244-1.243h1.696a9.78 9.78 0 0 1 .953-2.656L-11.275.394a1.242 1.242 0 0 1 0-1.758l1.793-1.793a1.242 1.242 0 0 1 1.758 0l1.007 1.007a9.857 9.857 0 0 1 2.744-1.242v-1.407c0-.687.557-1.243 1.244-1.243h2.535c.687 0 1.243.556 1.243 1.243v1.313c1.016.239 1.973.626 2.845 1.147l.968-.969a1.245 1.245 0 0 1 1.759 0l1.793 1.793a1.245 1.245 0 0 1 0 1.759l-.995.994a9.926 9.926 0 0 1 1.093 2.757h1.544c.686 0 1.243.556 1.243 1.243v2.535c0 .687-.557 1.244-1.243 1.244" transform="translate(195.06 314.059)"/>
    <path style="fill:#ff6224;fill-opacity:1;fill-rule:nonzero;stroke:none" d="M0 0h-44.606a3.988 3.988 0 0 0-3.989 3.988v33.174a3.988 3.988 0 0 0 3.989 3.987H0a3.988 3.988 0 0 0 3.988-3.987V3.988A3.988 3.988 0 0 0 0 0" transform="translate(283.163 322.828)"/>
    <path style="fill:#fff;fill-opacity:1;fill-rule:nonzero;stroke:none" d="M0 0c-.314 0-.628.128-.868.385L-6.41 6.316a1.379 1.379 0 0 0 0 1.858l5.636 6.031a1.171 1.171 0 0 0 1.736 0 1.38 1.38 0 0 0 0-1.858l-4.768-5.102L.868 2.243c.48-.514.48-1.346 0-1.858A1.183 1.183 0 0 0 0 0" transform="translate(251.981 336.486)"/>
    <path style="fill:#fff;fill-opacity:1;fill-rule:nonzero;stroke:none" d="M0 0c-.314 0-.628.128-.868.385a1.379 1.379 0 0 0 0 1.858l4.675 5.002-4.769 5.102a1.38 1.38 0 0 0 0 1.858c.48.513 1.257.513 1.736 0l5.637-6.031c.231-.246.36-.58.36-.929 0-.349-.129-.683-.36-.929L.868.385A1.185 1.185 0 0 0 0 0" transform="translate(269.737 336.486)"/>
    <path style="fill:#fff;fill-opacity:1;fill-rule:nonzero;stroke:none" d="M0 0a1.14 1.14 0 0 0-.462.098c-.629.273-.93 1.04-.675 1.712l5.501 14.462c.256.671.969.998 1.601.722.628-.274.93-1.04.675-1.712L1.138.819C.943.309.485 0 0 0" transform="translate(258.108 334.857)"/>
    <path style="fill:#fff;fill-opacity:1;fill-rule:nonzero;stroke:none" d="M0 0h-110.677v3.397c0 .917.743 1.66 1.659 1.66H-1.659C-.742 5.057 0 4.314 0 3.397Z" transform="translate(323.428 314.92)"/>
    <path style="fill:#383873;fill-opacity:1;fill-rule:nonzero;stroke:none" d="M0 0h-104.497a3.09 3.09 0 0 0-3.09 3.09v55.915H3.09V3.09A3.09 3.09 0 0 0 0 0" transform="translate(320.339 255.915)"/>
    <path style="fill:#ff6224;fill-opacity:1;fill-rule:nonzero;stroke:none" d="M0 0a.778.778 0 1 0-1.556 0A.778.778 0 0 0 0 0" transform="translate(318.117 317.449)"/>
    <path style="fill:#ff6224;fill-opacity:1;fill-rule:nonzero;stroke:none" d="M0 0a.778.778 0 1 0-1.556 0A.778.778 0 0 0 0 0" transform="translate(312.768 317.449)"/>
    <path style="fill:#ff6224;fill-opacity:1;fill-rule:nonzero;stroke:none" d="M0 0a.778.778 0 1 0-1.556 0A.778.778 0 0 0 0 0" transform="translate(307.42 317.449)"/>
    <path style="fill:#20c3c5;fill-opacity:1;fill-rule:nonzero;stroke:none" d="M0 0h-61.459a1.07 1.07 0 1 0 0 2.14H0A1.07 1.07 0 0 0 0 0" transform="translate(279.948 306.947)"/>
    <path style="fill:#20c3c5;fill-opacity:1;fill-rule:nonzero;stroke:none" d="M0 0h-61.459a1.07 1.07 0 1 0 0 2.14H0A1.07 1.07 0 0 0 0 0" transform="translate(279.948 300.14)"/>
    <path style="fill:#20c3c5;fill-opacity:1;fill-rule:nonzero;stroke:none" d="M0 0h-32.14a1.07 1.07 0 0 0 0 2.14H0A1.07 1.07 0 0 0 0 0" transform="translate(250.629 293.332)"/>
    <path style="fill:#ff6224;fill-opacity:1;fill-rule:nonzero;stroke:none" d="M0 0h-61.459a1.07 1.07 0 1 0 0 2.14H0A1.07 1.07 0 0 0 0 0" transform="translate(279.948 279.718)"/>
    <path style="fill:#ff6224;fill-opacity:1;fill-rule:nonzero;stroke:none" d="M0 0h-32.14a1.07 1.07 0 0 0 0 2.14H0A1.07 1.07 0 0 0 0 0" transform="translate(250.629 272.91)"/>
    <path style="fill:#20c3c5;fill-opacity:1;fill-rule:nonzero;stroke:none" d="M0 0h-32.14a1.07 1.07 0 0 0 0 2.14H0A1.07 1.07 0 0 0 0 0" transform="translate(250.629 266.104)"/>
    <path style="fill:#fff;fill-opacity:1;fill-rule:nonzero;stroke:none" d="M0 0h-23.096a1.07 1.07 0 1 0 0 2.14H0A1.07 1.07 0 0 0 0 0" transform="translate(279.948 293.332)"/>
    <path style="fill:#ff6224;fill-opacity:1;fill-rule:nonzero;stroke:none" d="m0 0-16.331-16.331a1.07 1.07 0 1 0-1.513 1.513L-1.513 1.513A1.07 1.07 0 1 0 0 0" transform="translate(310.455 308.618)"/>
    <path style="fill:#ff6224;fill-opacity:1;fill-rule:nonzero;stroke:none" d="M0 0c0-5.318-4.312-9.63-9.631-9.63-5.318 0-9.63 4.312-9.63 9.63 0 5.319 4.312 9.63 9.63 9.63C-4.312 9.63 0 5.319 0 0" transform="translate(311.164 277.724)"/>
    <path style="fill:#20c3c5;fill-opacity:1;fill-rule:nonzero;stroke:none" d="M0 0a5.451 5.451 0 1 0-10.903 0A5.452 5.452 0 0 0 0 0" transform="translate(300.273 271.013)"/>
    <path style="fill:#383873;fill-opacity:1;fill-rule:nonzero;stroke:none" d="M0 0v-19.471L17.895-1.576" transform="translate(212.752 261.886)"/>
    <path style="fill:#86bfbc;fill-opacity:1;fill-rule:nonzero;stroke:none" d="M0 0h39.262L53.46-27.326H14.198Z" transform="translate(193.704 237.152)"/>
    <path style="fill:#fff;fill-opacity:1;fill-rule:nonzero;stroke:none" d="m0 0-11.756 22.626a.713.713 0 0 0 .632 1.041h33.966c.266 0 .51-.147.633-.384L35.231.657a.712.712 0 0 0-.632-1.041H.632A.712.712 0 0 0 0 0" transform="translate(208.696 211.847)"/>
    <path style="fill:#b8e3e2;fill-opacity:1;fill-rule:nonzero;stroke:none" d="M239.701 209.826h-31.799v-3.647h31.799z"/>
    <path style="fill:#9fccc9;fill-opacity:1;fill-rule:nonzero;stroke:none" d="M0 0h-31.379a1.824 1.824 0 1 1 0-3.647H0A1.823 1.823 0 1 1 0 0" transform="translate(267.02 209.826)"/>
    <path style="fill:#b8e3e2;fill-opacity:1;fill-rule:nonzero;stroke:none" d="m0 0-14.198 27.326-.711-.534a1.168 1.168 0 0 1-.333-1.48L0-3.647Z" transform="translate(207.901 209.826)"/>
    <path style="fill:#9fccc9;fill-opacity:1;fill-rule:nonzero;stroke:none" d="M222.197 207.516h-3.501v.607h3.501zm4.4 0h-3.5v.607h3.5zm4.4 0h-3.5v.607h3.5z"/>
    <path style="fill:#383873;fill-opacity:1;fill-rule:nonzero;stroke:none" d="M0 0s-32.567-25.356-37.732-31.798c-1.948-2.439-5.345-6.712-8.864-11.091-5.778-7.194-11.909-14.691-12.637-14.872-1.162-.294-10.935 7.146-11.23 8.75-.18.999 8.717 16.272 16.419 28.549 4.69 7.464 8.929 13.832 10.419 15.207 3.937 3.651 28.164 16.484 28.164 16.484z" transform="translate(279.483 156.341)"/>
    <g/>
    <g style="opacity:.14999402" clip-path="url(#b)">
      <path style="fill:none;stroke:#000;stroke-width:.81800002;stroke-linecap:round;stroke-linejoin:miter;stroke-miterlimit:10;stroke-dasharray:none;stroke-opacity:1" d="M0 0s30.425 43.306 45.698 50.599" transform="translate(217.335 103.992)"/>
    </g>
    <path style="fill:#382424;fill-opacity:1;fill-rule:nonzero;stroke:none" d="M0 0a36.554 36.554 0 0 0-1.179-2.439c-2.382-4.551-.622-9.11-3.34-10.272a3.115 3.115 0 0 0-.547-.172c-3.503-.778-11.574 3.888-11.926 6.22-.352 2.333 2.488 6.328 0 6.81-2.487.483-3.83-3.699-3.83-3.699-2.046-.213-2.775 3.217-6.131 3.217-.475 0-.941-.066-1.391-.181-1.58-.393-2.963-1.366-3.847-2.12-.655-.548-1.032-.982-1.032-.982s-2.987 1.891-2.847 5.615c.237 5.901 2.414 10.207 7.661 11.082.581 6.565 5.982 10.067 13.201 10.289 6.327.196 7.276-5.493 7.424-6.909-.057 1.056-.352 4.527-1.858 6.909 3.167.139 5.958-2.12 5.23-9.487.728 2.194 3.282 3.577 5.247 1.973-1.817 0-3.569-3.061-3.569-3.061S-.598 11.426.859 8.897C2.07 6.81 1.612 3.724 0 0" transform="translate(313.425 267.54)"/>
    <path style="fill:#ffad94;fill-opacity:1;fill-rule:nonzero;stroke:none" d="m0 0-.081-1.081-.278-3.83s-5.828-4.985-9.135 0c-.025.033-.041.066-.073.099-1.024 1.521-1.949 2.054-2.791 2.152-1.826.221-3.299-1.564-4.822.368-4.354 5.525-6.089 11.925-6.645 14.487.45.115.916.18 1.39.18 3.357 0 4.085-3.429 6.131-3.216 0 0 1.343 4.182 3.83 3.699 2.489-.483-.351-4.477 0-6.81.157-1.039 1.851-2.545 3.995-3.822C-5.982.729-2.872-.458-.9-.229A3.127 3.127 0 0 1 0 0" transform="translate(308.907 254.829)"/>
    <g/>
    <g style="opacity:.25" clip-path="url(#c)">
      <path style="fill:#000;fill-opacity:1;fill-rule:nonzero;stroke:none" d="M0 0c-2.628-1.793-7.44-2.087-7.44-2.087l-3.937.581s-1.645 2.39-.876 3.724c.148.262.516.622 1.039 1.048 1.057.867 2.759 1.98 4.519 2.897 1.816.941 3.691 1.686 5.042 1.768C1.653 8.119 2.627 1.8 0 0" transform="translate(309.816 247.7)"/>
    </g>
    <path style="fill:#20c3c5;fill-opacity:1;fill-rule:nonzero;stroke:none" d="M0 0c-5.859-1.129-18.26 2.325-24.193 4.993-1.752.786-2.948 1.506-3.234 2.014-1.137 2.005.008 3.544 2.832 9.911.32.721.655 1.498 1.015 2.341 1.915 4.51 1.924 14.127 1.915 22.419-.024 7.095-.057 13.218 1.072 14.306C-18.146 58.342-5.934 66.06-5.934 66.06l2.431-12.67s1.375-6.434 2.824-14.831C1.989 23.098 4.92.95 0 0" transform="translate(309.038 183.858)"/>
    <path style="fill:#383873;fill-opacity:1;fill-rule:nonzero;stroke:none" d="M0 0c0-.581-5.836-14.192-10.73-16.141-4.895-1.948-34.393.197-34.393.197l-14.585-9.535 3.053-28.729 2.128-20.02.065-.647c-4.461-2.913-15.698-3.699-16.91-1.187-.008.008-.008.017-.008.017-1.17 2.529-19.062 56.401-12.056 65.74 6.998 9.33 51.924 22.951 51.924 22.951 1.171-.746 2.53-1.417 4.011-2.014 4.992-2.046 11.336-3.331 16.165-4.084 1.857-.287 3.486-.5 4.731-.647 1.571-.188 2.52-.262 2.52-.262S0 .589 0 0" transform="translate(313.123 178.22)"/>
    <path style="fill:#0c2059;fill-opacity:1;fill-rule:nonzero;stroke:none" d="M0 0h-37.928c-.188.671.065 1.351.638 2.038 1.539 1.85 5.394 3.708 9.11 5.313 3.528 1.522 6.916 2.831 8.054 3.731 2.676 2.12 1.44 6.245 1.367 6.499.409-.843 1.956-1.317 4.002-1.457 4.019-.286 9.953.712 12.907 2.644l-.065.647C-.785 17.254-.254 6.572-.073 2.038-.024.786 0 0 0 0" transform="translate(260.51 84.577)"/>
    <path style="fill:#2e4780;fill-opacity:1;fill-rule:nonzero;stroke:none" d="M0 0c-.115-1.809-.376-4.738-.9-5.524-.778-1.171-9.143-5.255-10.305-4.863-.753.246-1.67 1.065-2.218 1.614 3.527 1.522 6.916 2.831 8.054 3.731 2.676 2.12 1.44 6.245 1.367 6.499C-3.593.614-2.046.14 0 0" transform="translate(245.754 100.7)"/>
    <path style="fill:#2e4780;fill-opacity:1;fill-rule:nonzero;stroke:none" d="M0 0h-37.928c-.188.671.065 1.351.638 2.038H-.073C-.024.786 0 0 0 0" transform="translate(260.51 84.577)"/>
    <path style="fill:#0c2059;fill-opacity:1;fill-rule:nonzero;stroke:none" d="M0 0s-2.881-7.595-5.377-11.613c-.991-1.605-1.932-2.645-2.595-2.391-2.333.876-25.774 20.806-23.531 22.263.327.213.851.36 1.506.442 2.038.262 5.418-.024 8.545-.344 2.684-.278 5.181-.581 6.482-.581 3.306 0 3.741.974 3.741.974.073-.385.695-1.113 1.62-1.997C-6.711 4.003-.884-.221 0 0" transform="translate(220.25 98.58)"/>
    <path style="fill:#2e4780;fill-opacity:1;fill-rule:nonzero;stroke:none" d="M0 0c-4.968-3.29-10.149-1.31-11.172-.557-.753.549-.753 1.572-.671 2.161 2.684-.278 5.18-.581 6.482-.581 3.306 0 3.74.974 3.74.974C-1.547 1.612-.925.884 0 0" transform="translate(210.64 105.334)"/>
    <path style="fill:#2e4780;fill-opacity:1;fill-rule:nonzero;stroke:none" d="M0 0c-.99-1.604-1.932-2.645-2.595-2.391-2.332.876-25.774 20.806-23.531 22.263.328.213.852.36 1.506.442z" transform="translate(214.872 86.968)"/>
    <path style="fill:#ffad94;fill-opacity:1;fill-rule:nonzero;stroke:none" d="M0 0c-1.833-2.554-5.115-6.45-7.816-6.057-.098.016-.205.033-.335.057-5.158.909-35.482 8.513-36.914 8.799-1.457.286-11.664.385-11.082 1.457.581 1.072 6.417 4.469 7.972 4.387 1.555-.082 7.685-1.858 13.807-1.662 6.131.189 22.173 0 22.173 0l.778 1.342 1.146 1.982C-10.591 4.362-3.429-.483 0 0" transform="translate(284.86 208.683)"/>
    <g/>
    <g style="opacity:.14999402" clip-path="url(#d)">
      <path style="fill:none;stroke:#000;stroke-width:.81800002;stroke-linecap:round;stroke-linejoin:miter;stroke-miterlimit:10;stroke-dasharray:none;stroke-opacity:1" d="M0 0s-1.397-7.439 4.048-9.919" transform="translate(284.86 186.536)"/>
    </g>
    <g/>
    <g style="opacity:.14999402" clip-path="url(#e)">
      <path style="fill:none;stroke:#000;stroke-width:.81800002;stroke-linecap:round;stroke-linejoin:miter;stroke-miterlimit:10;stroke-dasharray:none;stroke-opacity:1" d="M0 0s-36.023-15.365-37.752-20.13c-1.729-4.765 9.164-56.433 9.164-56.433" transform="translate(282.003 180.555)"/>
    </g>
    <g/>
    <g style="opacity:.14999402" clip-path="url(#f)">
      <path style="fill:#000;fill-opacity:1;fill-rule:nonzero;stroke:none" d="M0 0c0-.581-5.836-14.192-10.73-16.141-4.895-1.948-34.393.197-34.393.197l-14.585-9.535 3.053-28.729s-6.163 32.812-6.163 34.957c0 1.833 40.744 13.546 51.482 25.799 4.207-.663 7.251-.909 7.251-.909S0 .589 0 0" transform="translate(313.123 178.22)"/>
    </g>
    <g/>
    <g style="opacity:.25" clip-path="url(#g)">
      <path style="fill:#000;fill-opacity:1;fill-rule:nonzero;stroke:none" d="M0 0c-2.529-3.585-6.605-8.135-9.47-12.261.32.721.655 1.498 1.015 2.341C-6.54-5.41-6.531 4.207-6.54 12.499l8.733 5.778S4.084 5.787 0 0" transform="translate(293.913 213.037)"/>
    </g>
    <path style="fill:#169799;fill-opacity:1;fill-rule:nonzero;stroke:none" d="M0 0a34.256 34.256 0 0 0-1.146-1.007 1.848 1.848 0 0 0-.451-.097C-5.025-1.588-12.188 3.258-11.868 9.2c.024.442.377 1.325.949 2.48C-7.988 17.589.826 30.742 2.447 30.137c0 0 5.663-.876 7.202-8.611C11.09 14.267 5.893 5.459 0 0" transform="translate(286.457 209.788)"/>
    <g/>
    <g style="opacity:.25" clip-path="url(#h)">
      <path style="fill:#000;fill-opacity:1;fill-rule:nonzero;stroke:none" d="M0 0c-1.244.146-2.873.359-4.73.646-4.83.753-11.173 2.039-16.166 4.084 4.404.156 13.825 3.053 14.962 24.621a106.118 106.118 0 0 1 2.373-12.498C-2.111 11.164-.745 5.164 0 0" transform="translate(306.517 184.12)"/>
    </g>
    <g/>
    <g style="opacity:.25" clip-path="url(#i)">
      <path style="fill:#000;fill-opacity:1;fill-rule:nonzero;stroke:none" d="M0 0c-.45-.524-.802-.999-1.072-1.399-1.76-.917-3.462-2.03-4.519-2.898-.736.81-1.416 1.13-2.054 1.203l3.879 4.886A21.184 21.184 0 0 1 0 0" transform="translate(304.193 255.262)"/>
    </g>
    <g/>
    <g style="opacity:.25" clip-path="url(#j)">
      <path style="fill:#000;fill-opacity:1;fill-rule:nonzero;stroke:none" d="M0 0c-1.833-2.554-5.115-6.45-7.816-6.057-.098.016-.205.033-.335.057-3.34 4.829-3.463 11.156-3.266 14.323l1.146 1.982C-10.591 4.362-3.429-.483 0 0" transform="translate(284.86 208.683)"/>
    </g>
    <g/>
    <g style="opacity:.25" clip-path="url(#k)">
      <path style="fill:#000;fill-opacity:1;fill-rule:nonzero;stroke:none" d="M0 0a36.554 36.554 0 0 0-1.179-2.439C-2.35-4.673-2.513-6.9-2.709-8.741c-.394.303-.794.581-1.195.818-2.53-1.506-4.232-3.069-5.328-4.354l-.009-.008c-3.569 1.277-7.505 4.01-7.751 5.622-.352 2.333 2.488 6.328 0 6.81-2.487.483-3.83-3.699-3.83-3.699-2.046-.213-2.775 3.217-6.131 3.217-.475 0-.941-.066-1.391-.181-1.58-.393-2.963-1.366-3.847-2.12 0 0 3.782 5.312 9.715 4.24 0 0-.867 1.654-4.861 1.457 8.364 2.726 13.709 1.653 16.287-1.359C-8.946-.761-4.011-3.806 0 0" transform="translate(313.425 267.54)"/>
    </g>
    <path style="fill:#b8e3e2;fill-opacity:1;fill-rule:nonzero;stroke:none" d="M0 0h-29.179S-6.032 6.81-6.032 52.71c0 .59 0 1.171-.008 1.752-.237 30.676-6.794 47.594-14.872 52.415 2.529 1.498 5.892 2.93 10.337 3.92 1.94.442 4.076.794 6.442 1.04 19.979 2.038 35.939-5.795 37.838-14.659C35.596 88.313 23.916 0 0 0" transform="translate(330.433 152.74)"/>
    <path style="fill:#86bfbc;fill-opacity:1;fill-rule:nonzero;stroke:none" d="M0 0c0-45.9-23.146-52.71-23.146-52.71h-47.84l1.988 1.416 12.597 8.119 25.283 1.752c1.358 5.639 5.057 5.827 10.697 6.417 3.282.335 3.602 5.876 2.603 13.201-.729 5.272-2.136 11.468-3.626 17.328a105.99 105.99 0 0 0-2.373 12.498 109.532 109.532 0 0 0-.91 13.481c-.073 9.674 1.106 17.94 2.35 23.915.114.582.237 1.138.36 1.67 0 .017.008.041.008.058.114.253.614 1.284 1.792 2.66l.009.008c1.097 1.285 2.799 2.848 5.328 4.354.401-.237.802-.516 1.195-.818C-6.163 47.619-.237 30.897-.008 1.752 0 1.171 0 .59 0 0" transform="translate(324.401 205.45)"/>
    <path style="fill:#b8e3e2;fill-opacity:1;fill-rule:nonzero;stroke:none" d="M0 0h-34.441c-1.179 0-1.695 1.49-.762 2.219l8.619 6.744a15.813 15.813 0 0 1 6.057 12.44v46.76h6.613v-46.76c0-4.853 2.234-9.445 6.064-12.44L.761 2.219C1.694 1.49 1.179 0 0 0" transform="translate(315.169 84.577)"/>
    <g/>
    <g style="opacity:.25" clip-path="url(#l)">
      <path style="fill:none;stroke:#000;stroke-width:.81800002;stroke-linecap:round;stroke-linejoin:miter;stroke-miterlimit:10;stroke-dasharray:none;stroke-opacity:1" d="M0 0s.251-.643.663-1.931" transform="translate(341.437 262.815)"/>
      <path style="fill:none;stroke:#000;stroke-width:.81800002;stroke-linecap:round;stroke-linejoin:miter;stroke-miterlimit:10;stroke-dasharray:4.153,4.153;stroke-dashoffset:0;stroke-opacity:1" d="M0 0c1.171-4.388 2.691-11.224 3.898-20.527 3.131-24.155-.049-58.058-21.053-79.535" transform="translate(343.258 256.901)"/>
      <path style="fill:none;stroke:#000;stroke-width:.81800002;stroke-linecap:round;stroke-linejoin:miter;stroke-miterlimit:10;stroke-dasharray:none;stroke-opacity:1" d="M0 0c-.491-.47-.992-.934-1.502-1.391" transform="translate(324.62 155.373)"/>
    </g>
    <g/>
    <g style="opacity:.14999402" clip-path="url(#m)">
      <path style="fill:#000;fill-opacity:1;fill-rule:nonzero;stroke:none" d="M0 0v-12.769c-2.292-1.194-4.616-2.111-6.613-2.782V0Z" transform="translate(301.255 152.74)"/>
    </g>
    <g/>
    <g style="opacity:.14999402" clip-path="url(#n)">
      <path style="fill:#000;fill-opacity:1;fill-rule:nonzero;stroke:none" d="M0 0c-1.556-4.861-11.271-3.991-12.449-7.587-2.502-7.631-3.888-4.272-13.505-5.247-5.5-.557-9.494-4.084-11.9-7.006h-19.128l1.988 1.416 12.597 8.119 25.283 1.752c1.358 5.639 5.057 5.827 10.697 6.417 3.282.335 3.602 5.876 2.603 13.201-.729 5.272-2.136 11.468-3.626 17.329a105.71 105.71 0 0 0-2.373 12.498 109.503 109.503 0 0 0-.91 13.48C-6.981 34.875 1.154 3.602 0 0" transform="translate(310.397 172.58)"/>
    </g>
    <g/>
    <g style="opacity:.14999402" clip-path="url(#o)">
      <path style="fill:#000;fill-opacity:1;fill-rule:nonzero;stroke:none" d="M0 0c0 .59 0 1.171-.008 1.752-.237 30.676-6.794 47.594-14.872 52.415 2.529 1.498 5.893 2.93 10.337 3.92-1.334-1.923-2.726-4.812-2.07-7.898C-5.442 44.73 7.784 23.728 2.726-9.92-.925-34.196.286-46.825 4.101-52.71h-27.247S0-45.9 0 0" transform="translate(324.401 205.45)"/>
    </g>
    <g/>
    <g style="opacity:.25" clip-path="url(#p)">
      <path style="fill:#000;fill-opacity:1;fill-rule:nonzero;stroke:none" d="M0 0c-.017-1.064-.115-2.071-.311-2.963h-9.388c-2.759 1.833-7.26 5.459-9.961 10.901 2.513-2.733 6.802-6.064 11.172-7.079C-4.674-.024-1.833.352 0 0" transform="translate(157.456 230.455)"/>
    </g>
    <path style="fill:#20c3c5;fill-opacity:1;fill-rule:nonzero;stroke:none" d="M0 0c-1.048-3.806-5.852-11.189-10.239-19.096-4.797-8.626-9.085-17.867-7.407-23.735.417-1.474.605-2.554.605-3.331.017-2.554-1.923-1.76-3.879-.312-1.997 1.482-4.019 3.643-4.019 3.643l.147 11.377s-6.45 5.926-1.154 18.89c.336.818.72 1.67 1.154 2.554 7.293 14.732 18.228 30.194 7.874 34.572C-2.619 25.438 2.193 7.963 0 0" transform="translate(179.26 267.728)"/>
    <g/>
    <g style="opacity:.52999902" clip-path="url(#q)">
      <path style="fill:#000;fill-opacity:1;fill-rule:nonzero;stroke:none" d="M0 0c2.678-.583 5.012-2.378 6.492-4.668.399-.56.682-1.186.999-1.793.238-.641.543-1.262.705-1.929.191-.658.378-1.318.475-1.997l.178-1.012.064-1.034c-.057-2.769-.937-5.412-1.85-7.978-.952-2.565-2.052-5.068-3.189-7.55-2.277-4.964-4.732-9.842-6.898-14.838-1.073-2.499-2.101-5.023-2.862-7.618a24.831 24.831 0 0 1-.85-3.934c-.166-1.315-.155-2.67.265-3.863l.004-.012a.409.409 0 0 0-.772-.271l-.002.006c-.47 1.402-.444 2.858-.257 4.234a25.47 25.47 0 0 0 .926 4.045c.809 2.635 1.877 5.161 2.986 7.661 2.239 4.99 4.754 9.836 7.089 14.763 1.165 2.463 2.293 4.945 3.273 7.485.941 2.539 1.843 5.157 1.932 7.871l-.049 1.009-.164 1.004c-.088.676-.265 1.331-.446 1.986-.152.663-.446 1.281-.675 1.92-.306.605-.579 1.23-.968 1.789C4.967-2.435 2.67-.616 0 0" transform="translate(162.342 292.29)"/>
    </g>
    <path style="fill:#169799;fill-opacity:1;fill-rule:nonzero;stroke:none" d="M0 0c-4.371-11.524 0-20.266-6.564-21.51-3.004-.573-4.33 1.654-4.878 4.24-.655 3.061-.221 6.622-.221 6.622S-10.55-7.8-8.209-5.034C-6.302-2.783-3.593-.59 0 0" transform="translate(172.696 244.737)"/>
    <path style="fill:#b8e3e2;fill-opacity:1;fill-rule:nonzero;stroke:none" d="M0 0c-.025-2.685-.63-4.96-1.875-6.155a3.86 3.86 0 0 0-.36-.32c-3.102-2.512-5.082 2.087-5.082 2.087S-15.567-.319-19.66 7.938c-3.135 6.344-3.831 15.167 3.544 26.511 1.08-8.078 5.508-13.578 9.895-18.8v-.008c.549-.655 1.089-1.293 1.629-1.94C-1.555 10.059.041 4.46 0 0" transform="translate(157.456 230.455)"/>
    <g/>
    <g style="opacity:.52999902" clip-path="url(#r)">
      <path style="fill:#000;fill-opacity:1;fill-rule:nonzero;stroke:none" d="M0 0a35.985 35.985 0 0 1-.557-10.572c.372-3.507 1.337-6.992 3.242-9.961 1.833-3.019 4.379-5.504 6.688-8.218 1.148-1.361 2.252-2.806 3.025-4.465a10.616 10.616 0 0 0 .992-5.366.408.408 0 1 0-.815.074 9.856 9.856 0 0 1-.829 4.997c-.697 1.578-1.738 3.004-2.846 4.368-2.227 2.725-4.759 5.293-6.566 8.398C.453-17.683-.456-14.123-.76-10.591A36.075 36.075 0 0 0 0 0" transform="translate(141.338 264.903)"/>
    </g>
    <g/>
    <g style="opacity:.25" clip-path="url(#s)">
      <path style="fill:#000;fill-opacity:1;fill-rule:nonzero;stroke:none" d="M0 0c-1.253-1.45-2.419-2.973-3.534-4.528-1.106-1.561-2.165-3.156-3.114-4.813-1.894-3.299-3.504-6.836-4.033-10.555l-.002-.014a.409.409 0 1 0-.808.13c.698 3.883 2.469 7.39 4.492 10.65 1.016 1.635 2.137 3.198 3.301 4.724A63.555 63.555 0 0 0 0 0" transform="translate(172.699 244.737)"/>
    </g>
    <path style="fill:#b8e3e2;fill-opacity:1;fill-rule:nonzero;stroke:none" d="m0 0-2.799-17.187a1.534 1.534 0 0 0-1.506-1.245h-17.442c-.736 0-1.367.524-1.506 1.245l-2.275 13.955L-26.052 0a1.532 1.532 0 0 0 1.506 1.81h23.04C-.548 1.81.172.941 0 0" transform="translate(170.044 224.61)"/>
    <path style="fill:#86bfbc;fill-opacity:1;fill-rule:nonzero;stroke:none" d="M0 0h-31.356l.827 4.682a2.07 2.07 0 0 0 2.03 1.703h25.651c.99 0 1.849-.721 2.021-1.703z" transform="translate(172.696 221.107)"/>
    <g/>
    <g style="opacity:.25" clip-path="url(#t)">
      <path style="fill:#000;fill-opacity:1;fill-rule:nonzero;stroke:none" d="M0 0s-.434-3.544.213-6.597h-4.101c.197.892.295 1.899.311 2.963.041 4.46-1.555 10.059-4.591 13.701-.54.647-1.081 1.286-1.629 1.94v.009c.065 2.512.638 5.524 2.079 9.06.237-4.134 1.252-11.32 5.377-12.081 3.135-.573 7.219 2.537 10.329 5.549-1.645-2.954-3.224-5.982-4.534-8.93C1.113 2.849 0 0 0 0" transform="translate(161.033 234.089)"/>
    </g>
    <g/>
    <g style="opacity:.25" clip-path="url(#u)">
      <path style="fill:#000;fill-opacity:1;fill-rule:nonzero;stroke:none" d="M0 0h-10.411c-.736 0-1.367.523-1.506 1.244l-2.234 13.685h8.995c-.221-1.915-.491-5.492.188-8.267C-4.436 4.461-2.504 1.629 0 0" transform="translate(158.708 206.178)"/>
    </g>
    <path style="fill:#383873;fill-opacity:1;fill-rule:nonzero;stroke:none" d="M0 0h-44.606a3.989 3.989 0 0 0-3.989 3.988v33.174a3.989 3.989 0 0 0 3.989 3.988H0a3.988 3.988 0 0 0 3.988-3.988V3.988A3.988 3.988 0 0 0 0 0" transform="translate(237.581 347.755)"/>
    <path style="fill:#fff;fill-opacity:1;fill-rule:nonzero;stroke:none" d="M0 0v-4.429c0-.354.288-.642.643-.642h2.451c.355 0 .642.288.642.642V0c0 .355.288.643.643.643h.237A.643.643 0 0 0 5.258 0v-12.04a.643.643 0 0 0-.642-.642h-.237a.643.643 0 0 0-.643.642v4.943a.641.641 0 0 1-.642.642H.643A.642.642 0 0 1 0-7.097v-4.943a.643.643 0 0 0-.643-.642H-.88a.642.642 0 0 0-.642.642V0c0 .355.287.643.642.643h.237A.643.643 0 0 0 0 0" transform="translate(201.23 374.35)"/>
    <path style="fill:#fff;fill-opacity:1;fill-rule:nonzero;stroke:none" d="M0 0h-1.147a.643.643 0 0 0-.642.642v.08c0 .355.288.642.642.642h5.101a.641.641 0 0 0 .642-.642v-.08A.642.642 0 0 0 3.954 0H2.807a.642.642 0 0 1-.642-.643v-10.675a.643.643 0 0 0-.643-.642h-.237a.643.643 0 0 0-.643.642V-.643A.643.643 0 0 1 0 0" transform="translate(209.776 373.628)"/>
    <path style="fill:#fff;fill-opacity:1;fill-rule:nonzero;stroke:none" d="M0 0c-.099 1.76-.198 3.716-.138 5.219h-.079A78.076 78.076 0 0 0-1.285.593l-1.641-6.247h-.969L-5.457.336c-.435 1.7-.829 3.341-1.086 4.883h-.06c0-1.562-.08-3.42-.158-5.318L-6.99-5.12a.642.642 0 0 0-.642-.613h-.069a.642.642 0 0 0-.641.68l.715 12.04c.02.339.301.604.641.604h.537a.642.642 0 0 0 .622-.482l1.439-5.607c.454-1.759.79-3.064 1.067-4.586h.059c.257 1.522.554 2.788.989 4.586l1.382 5.601a.642.642 0 0 0 .623.488h.591c.34 0 .621-.265.641-.605l.696-12.04a.642.642 0 0 0-.641-.679H.888a.642.642 0 0 0-.641.611z" transform="translate(223.84 367.401)"/>
    <path style="fill:#fff;fill-opacity:1;fill-rule:nonzero;stroke:none" d="M0 0h.238A.642.642 0 0 0 .88-.643v-10.754c0-.355.288-.643.642-.643h2.472a.642.642 0 0 0 0-1.285H0a.643.643 0 0 0-.642.643V-.643C-.642-.288-.354 0 0 0" transform="translate(228.254 374.992)"/>
    <path style="fill:#383873;fill-opacity:1;fill-rule:nonzero;stroke:none" d="M0 0c1.669 0 2.063 1.123 2.063 2.124 0 .88-.09 1.73-.181 2.58-.091.91-.183 1.73-.183 2.67 0 2.731 1.67 3.884 3.824 3.884h.365V9.681h-.456c-1.275 0-1.79-.911-1.79-2.276 0-.82.091-1.578.182-2.307.061-.789.152-1.517.152-2.245.03-2.368-.789-3.187-2.094-3.551v-.061c1.305-.394 2.124-1.214 2.094-3.611 0-.759-.091-1.517-.152-2.276-.091-.759-.182-1.518-.182-2.337 0-1.366.455-2.306 1.821-2.306h.425v-1.578h-.395c-2.003 0-3.794 1.001-3.794 3.884 0 .911.092 1.821.183 2.701.091.88.181 1.76.181 2.61 0 .971-.394 2.154-2.063 2.154z" transform="translate(257.916 385.38)"/>
    <path style="fill:#383873;fill-opacity:1;fill-rule:nonzero;stroke:none" d="M0 0c-1.669 0-2.063-1.184-2.063-2.154 0-.85.09-1.73.181-2.61.091-.88.183-1.791.183-2.701 0-2.883-1.791-3.885-3.794-3.885h-.395v1.579h.425c1.366.151 1.821.94 1.821 2.306 0 .819-.091 1.578-.152 2.337-.091.758-.182 1.517-.182 2.275-.03 2.398.788 3.217 2.094 3.612v.06c-1.306.365-2.124 1.184-2.094 3.551 0 .729.091 1.457.182 2.246.061.728.152 1.487.152 2.306 0 1.366-.516 2.124-1.791 2.276h-.455v1.578h.365c2.154 0 3.824-1.153 3.824-3.884 0-.941-.092-1.76-.183-2.671-.091-.849-.181-1.7-.181-2.579 0-1.001.394-2.124 2.063-2.124z" transform="translate(288.853 383.862)"/>
    <path style="fill:#ff6224;fill-opacity:1;fill-rule:nonzero;stroke:none" d="M0 0v5.838l-5.056 2.918-5.055-2.918V0l5.055-2.919z" transform="translate(278.44 381.656)"/>
    <path style="fill:#ff6224;fill-opacity:1;fill-rule:nonzero;stroke:none" d="M0 0a12.325 12.325 0 0 1-14.223-2.324c-4.635-4.636-4.79-12.067-.489-16.905l-1.853.22a.41.41 0 0 1-.097-.813l2.823-.336a.411.411 0 0 1 .455.358l.324 2.731a.409.409 0 1 1-.812.097l-.207-1.739c-4.037 4.517-3.901 11.472.435 15.809A11.51 11.51 0 0 0-.364-.732.409.409 0 1 1 0 0" transform="translate(316.475 352.57)"/>
    <path style="fill:#ff6224;fill-opacity:1;fill-rule:nonzero;stroke:none" d="M0 0a12.325 12.325 0 0 1 14.223 2.324c4.635 4.636 4.79 12.067.489 16.906l1.853-.22a.409.409 0 1 1 .097.812l-2.823.336a.411.411 0 0 1-.454-.358l-.325-2.731a.409.409 0 1 1 .812-.097l.207 1.739c4.038-4.517 3.901-11.472-.435-15.809A11.51 11.51 0 0 0 .364.732.41.41 0 0 1-.185.548.41.41 0 0 1 0 0" transform="translate(305.851 329.922)"/>
    <path style="fill:#ff6224;fill-opacity:1;fill-rule:nonzero;stroke:none" d="M0 0h-74.073a2.445 2.445 0 0 0 0 4.89H0A2.445 2.445 0 1 0 0 0" transform="translate(415.311 306.947)"/>
    <path style="fill:#20c3c5;fill-opacity:1;fill-rule:nonzero;stroke:none" d="M0 0h-47.623a2.444 2.444 0 1 0 0 4.889H0a2.443 2.443 0 0 0 2.444-2.445A2.443 2.443 0 0 0 0 0" transform="translate(388.861 296.32)"/>
    <path style="fill:#20c3c5;fill-opacity:1;fill-rule:nonzero;stroke:none" d="M0 0h-47.623a2.444 2.444 0 1 0 0 4.889H0A2.444 2.444 0 1 0 0 0" transform="translate(388.861 284.91)"/>
    <path style="fill:#20c3c5;fill-opacity:1;fill-rule:nonzero;stroke:none" d="M0 0h-38.477a2.445 2.445 0 0 0 0 4.89H0A2.445 2.445 0 0 0 0 0" transform="translate(152.667 347.567)"/>
    <path style="fill:#ff6224;fill-opacity:1;fill-rule:nonzero;stroke:none" d="M0 0h-23.95a2.445 2.445 0 0 0 0 4.89H0A2.445 2.445 0 0 0 0 0" transform="translate(138.14 336.94)"/>
    <path style="fill:#ff6224;fill-opacity:1;fill-rule:nonzero;stroke:none" d="M0 0h-23.95a2.445 2.445 0 0 0 0 4.89H0A2.445 2.445 0 0 0 0 0" transform="translate(138.14 325.53)"/>
    <path style="fill:#169799;fill-opacity:1;fill-rule:nonzero;stroke:none" d="M0 0c-2.398-6.957-5.263-13.03-8.259-18.514-10.353-18.915-22.377-30.947-22.827-48.585 0 0-3.732 16.616-.736 35.546C-30.145-20.92-26.347-9.56-18.579 0 3.036 26.584-.164 50.762-.164 50.762S10.673 30.931 0 0" transform="translate(381.94 170.345)"/>
    <g/>
    <g style="opacity:.25" clip-path="url(#v)">
      <path style="fill:#000;fill-opacity:1;fill-rule:nonzero;stroke:none" d="M0 0c-.317 2.205-.231 4.352-.028 6.506a40.191 40.191 0 0 0 1.151 6.355c1.072 4.172 2.665 8.191 4.6 12.021.931 1.935 2.045 3.773 3.132 5.621l3.481 5.374c2.218 3.612 4.089 7.444 5.664 11.395a110.24 110.24 0 0 1 4.047 12.105 131.321 131.321 0 0 1 2.79 12.471c.733 4.197 1.268 8.433 1.534 12.688.127 2.127.186 4.261.094 6.391-.053 1.063-.119 2.13-.293 3.181-.176 1.046-.37 2.113-.867 3.064.512-.943.726-2.01.919-3.055.191-1.052.275-2.119.346-3.184.127-2.134.103-4.274.011-6.408-.185-4.27-.69-8.522-1.377-12.74a131.605 131.605 0 0 0-2.662-12.541 110.4 110.4 0 0 0-3.937-12.212c-1.542-3.995-3.386-7.882-5.594-11.569l-3.449-5.394c-1.072-1.831-2.168-3.652-3.083-5.567-1.902-3.789-3.461-7.756-4.504-11.856A43.593 43.593 0 0 1 .834 6.417C.616 4.333.529 2.178.805.151L.81.113A.41.41 0 0 0 0 0" transform="translate(356.471 123.935)"/>
    </g>
    <g/>
    <g style="opacity:.25" clip-path="url(#w)">
      <path style="fill:#000;fill-opacity:1;fill-rule:nonzero;stroke:none" d="M0 0c-10.354-18.915-22.377-30.947-22.827-48.585 0 0-3.733 16.615-.736 35.546C-16.853-10.297-7.415-5.828 0 0" transform="translate(373.681 151.832)"/>
    </g>
    <path style="fill:#20c3c5;fill-opacity:1;fill-rule:nonzero;stroke:none" d="M0 0s-7.561 12.927 10.333 28.878C28.226 44.83 42.229 65.927 39.506 82.996 22.392 63.111-23.119 34.916-10.283.002Z" transform="translate(356.856 84.575)"/>
    <g/>
    <g style="opacity:.25" clip-path="url(#x)">
      <path style="fill:#000;fill-opacity:1;fill-rule:nonzero;stroke:none" d="M0 0c-1.708-3.767-3.997-7.244-6.461-10.558-2.49-3.301-5.229-6.413-8.145-9.346-2.889-2.965-6.081-5.618-9.244-8.269-3.144-2.664-5.993-5.673-8.534-8.914-5.076-6.481-9.047-13.861-11.438-21.732-1.168-3.936-1.971-8-2.084-12.096-.12-4.078.402-8.229 2.035-11.954a.408.408 0 1 0-.748-.33l-.002.004c-1.665 3.887-2.156 8.15-2.001 12.304.15 4.174 1 8.283 2.213 12.251 2.482 7.934 6.544 15.327 11.705 21.808 2.583 3.239 5.474 6.241 8.656 8.895 3.193 2.629 6.387 5.241 9.298 8.177 2.934 2.904 5.693 5.988 8.208 9.264C-4.054-7.206-1.739-3.752 0 0" transform="translate(396.362 167.571)"/>
    </g>
    <path style="fill:#169799;fill-opacity:1;fill-rule:nonzero;stroke:none" d="M0 0s-9.335 8.508-14.295 29.781c28.59-24.238 35.592-45.825 35.592-45.825Z" transform="translate(100.057 178.221)"/>
    <g/>
    <g style="opacity:.25" clip-path="url(#y)">
      <path style="fill:#000;fill-opacity:1;fill-rule:nonzero;stroke:none" d="M0 0a617.975 617.975 0 0 0 11.652-17.269 321.049 321.049 0 0 0 5.542-8.827c1.789-2.981 3.54-5.987 4.993-9.187a.409.409 0 1 0-.747-.333l-.006.013c-1.357 3.151-3.045 6.194-4.769 9.197a326.757 326.757 0 0 1-5.358 8.919A623.972 623.972 0 0 1 0 0" transform="translate(85.762 208.003)"/>
    </g>
    <path style="fill:#20c3c5;fill-opacity:1;fill-rule:nonzero;stroke:none" d="M0 0c-5.14 4.633-12.752 9.224-19.995 14.168-9.634 6.572-18.612 13.791-20.274 22.606C-44.05 4.96-7.047-9.363-7.047-9.363l.074-.107L6.466-29.072S11.958-10.796 0 0" transform="translate(120.772 166.261)"/>
    <g/>
    <g style="opacity:.25" clip-path="url(#z)">
      <path style="fill:#000;fill-opacity:1;fill-rule:nonzero;stroke:none" d="M0 0c.023-3.546 1.053-7.016 2.545-10.201a31.297 31.297 0 0 1 6.184-8.522c2.514-2.478 5.415-4.515 8.376-6.436 2.96-1.929 5.969-3.791 8.896-5.786 5.836-3.965 11.429-8.593 15.341-14.6 3.971-5.959 5.802-13.184 5.803-20.303a.41.41 0 0 0-.819-.005v.006c.064 6.994-1.656 14.074-5.499 19.97-3.787 5.941-9.278 10.587-15.058 14.595-2.898 2.016-5.887 3.906-8.833 5.867-2.946 1.952-5.846 4.029-8.352 6.547a31.488 31.488 0 0 0-6.131 8.623C.985-7.033-.011-3.547 0 0" transform="translate(80.503 203.036)"/>
    </g>
    <path style="fill:#eaf9f8;fill-opacity:1;fill-rule:nonzero;stroke:none" d="M0 0h-248.609a7.1 7.1 0 1 0 0 14.198H0A7.1 7.1 0 1 0 0 0" transform="translate(384.206 70.379)"/>
  </g>
</svg>
